<?xml version="1.0" encoding="UTF-8"?>
<svg id="Ebene_1" data-name="Ebene 1" xmlns="http://www.w3.org/2000/svg" xmlns:xlink="http://www.w3.org/1999/xlink" viewBox="0 0 354.33 354.33">
  <defs>
    <style>
      .cls-1 {
        fill: url(#Unbenannter_Verlauf_14);
        opacity: .3;
      }

      .cls-2 {
        fill: url(#Unbenannter_Verlauf_14-2);
        opacity: .55;
      }

      .cls-3 {
        fill: url(#Unbenannter_Verlauf_14-3);
        opacity: .83;
      }

      .cls-4 {
        fill: #fff;
      }

      .cls-5 {
        opacity: .5;
      }
    </style>
    <linearGradient id="Unbenannter_Verlauf_14" data-name="Unbenannter Verlauf 14" x1="146.51" y1="-2689.17" x2="146.51" y2="-2968.5" gradientTransform="translate(-1957.38 2073.85) rotate(45)" gradientUnits="userSpaceOnUse">
      <stop offset=".01" stop-color="#000"/>
      <stop offset=".84" stop-color="#999"/>
    </linearGradient>
    <linearGradient id="Unbenannter_Verlauf_14-2" data-name="Unbenannter Verlauf 14" x1="177.17" y1="-2689.17" x2="177.17" y2="-2968.5" gradientTransform="translate(-1948.4 2052.17) rotate(45)" xlink:href="#Unbenannter_Verlauf_14"/>
    <linearGradient id="Unbenannter_Verlauf_14-3" data-name="Unbenannter Verlauf 14" x1="207.82" y1="-2689.17" x2="207.82" y2="-2968.5" gradientTransform="translate(-1939.42 2030.5) rotate(45)" xlink:href="#Unbenannter_Verlauf_14"/>
  </defs>
  <polygon class="cls-4" points="347.48 177.17 207.82 37.5 192.49 52.83 177.16 37.5 161.84 52.83 146.51 37.5 6.85 177.17 146.51 316.83 161.84 301.5 177.17 316.83 192.49 301.5 207.82 316.83 347.48 177.17"/>
  <rect class="cls-1" x="47.75" y="78.41" width="197.51" height="197.51" transform="translate(-82.36 155.49) rotate(-45)"/>
  <rect class="cls-2" x="78.41" y="78.41" width="197.51" height="197.51" transform="translate(-73.38 177.17) rotate(-45)"/>
  <rect class="cls-3" x="109.07" y="78.41" width="197.51" height="197.51" transform="translate(-64.41 198.84) rotate(-45)"/>
  <g>
    <path class="cls-4" d="M195.24,237.25h-36.62c-3.47,0-6.29-2.83-6.29-6.3V123.38c0-3.47,2.82-6.29,6.29-6.29h66.67c1.68,0,3.26,.65,4.45,1.84l18.02,18.02c1.17,1.17,1.84,2.79,1.84,4.45v24.33c0,1.58-1.28,2.86-2.86,2.86s-2.86-1.28-2.86-2.86v-24.33l-18.18-18.42-67.08-.17c-.31,0-.57,.26-.57,.57v107.57c0,.32,.26,.58,.57,.58h36.62c1.58,0,2.86,1.28,2.86,2.86s-1.28,2.86-2.86,2.86Z"/>
    <g>
      <path class="cls-4" d="M223.85,139.4v-17.43c0-1.12,.91-2.02,2.02-2.02,.54,0,1.05,.21,1.43,.59l18.84,18.84c.38,.38,.59,.89,.59,1.43,0,1.12-.91,2.02-2.02,2.02h-17.43c-1.9,0-3.43-1.54-3.43-3.43Z"/>
      <path class="cls-4" d="M244.72,145.69h-17.43c-3.47,0-6.29-2.82-6.29-6.29v-17.43c0-2.69,2.19-4.88,4.88-4.88,1.3,0,2.53,.51,3.45,1.43l18.84,18.84c.92,.91,1.43,2.14,1.43,3.45,0,2.69-2.19,4.88-4.88,4.88Zm-.59-4.29h0Zm-17.42-17.41v15.41c0,.32,.26,.57,.57,.57h15.41l-15.98-15.98Z"/>
    </g>
  </g>
  <g class="cls-5">
    <path class="cls-4" d="M230.8,236.79h0c-3.4,0-6.67-1.44-8.96-3.96-1.29-1.42-3.14-2.18-5.02-2.08-3.35,.24-6.73-1.13-9.14-3.54-2.41-2.41-3.7-5.73-3.54-9.14,.09-1.91-.67-3.74-2.08-5.02-2.51-2.29-3.96-5.56-3.96-8.96s1.44-6.67,3.96-8.96c1.41-1.28,2.17-3.11,2.08-5.02-.16-3.4,1.13-6.73,3.54-9.14,2.41-2.41,5.77-3.69,9.14-3.53,1.94,.15,3.74-.67,5.02-2.08h0c2.29-2.51,5.55-3.96,8.96-3.96h0c3.4,0,6.67,1.44,8.96,3.96,1.29,1.42,3.13,2.19,5.03,2.08,3.38-.18,6.73,1.13,9.14,3.54,2.41,2.41,3.69,5.74,3.53,9.13-.08,1.91,.67,3.74,2.09,5.02,2.51,2.29,3.96,5.56,3.96,8.96s-1.44,6.67-3.96,8.96c-1.42,1.29-2.17,3.12-2.09,5.03,.16,3.4-1.12,6.73-3.53,9.13-2.4,2.41-5.62,3.76-9.14,3.54-1.8-.02-3.74,.66-5.02,2.08-2.3,2.51-5.57,3.96-8.96,3.96Zm-13.66-11.77c3.39,0,6.62,1.42,8.93,3.96,1.22,1.35,2.9,2.09,4.72,2.09h0c1.82,0,3.5-.74,4.73-2.09,2.44-2.68,5.81-4.17,9.53-3.94,1.73,0,3.52-.58,4.82-1.87,1.29-1.29,1.95-3,1.87-4.82-.17-3.62,1.27-7.09,3.95-9.53,1.35-1.22,2.09-2.91,2.09-4.73s-.74-3.5-2.09-4.73c-2.68-2.43-4.12-5.91-3.95-9.52,.08-1.82-.58-3.53-1.87-4.82-1.29-1.29-3.06-1.97-4.82-1.87-3.65,.2-7.09-1.27-9.53-3.95-1.22-1.35-2.91-2.09-4.73-2.09h0c-1.82,0-3.5,.74-4.72,2.09-2.44,2.68-5.91,4.18-9.53,3.95-1.8-.1-3.53,.58-4.82,1.87-1.29,1.29-1.96,3-1.87,4.82,.17,3.62-1.27,7.09-3.94,9.53-1.35,1.22-2.09,2.91-2.09,4.73s.74,3.5,2.09,4.73c2.67,2.44,4.11,5.91,3.94,9.53-.08,1.82,.58,3.53,1.87,4.82s3.11,1.87,4.82,1.87c.2-.01,.4-.02,.6-.02Z"/>
    <path class="cls-4" d="M227.68,213.2c-.73,0-1.46-.28-2.02-.84l-6.24-6.24c-1.12-1.12-1.12-2.93,0-4.05s2.93-1.12,4.05,0l4.22,4.22,10.46-10.46c1.12-1.12,2.93-1.12,4.05,0,1.12,1.12,1.12,2.93,0,4.05l-12.48,12.48c-.56,.56-1.29,.84-2.02,.84Z"/>
  </g>
</svg>