<?xml version="1.0" encoding="UTF-8"?>
<svg id="Ebene_1" data-name="Ebene 1" xmlns="http://www.w3.org/2000/svg" xmlns:xlink="http://www.w3.org/1999/xlink" viewBox="0 0 354.33 354.33">
  <defs>
    <style>
      .cls-1 {
        fill: url(#Unbenannter_Verlauf_14);
        opacity: .3;
      }

      .cls-2 {
        fill: url(#Unbenannter_Verlauf_14-2);
        opacity: .55;
      }

      .cls-3 {
        fill: url(#Unbenannter_Verlauf_14-3);
        opacity: .83;
      }

      .cls-4 {
        fill: #fff;
      }

      .cls-5 {
        opacity: .5;
      }
    </style>
    <linearGradient id="Unbenannter_Verlauf_14" data-name="Unbenannter Verlauf 14" x1="146.51" y1="-2689.17" x2="146.51" y2="-2968.5" gradientTransform="translate(-1957.38 2073.85) rotate(45)" gradientUnits="userSpaceOnUse">
      <stop offset=".01" stop-color="#000"/>
      <stop offset=".84" stop-color="#999"/>
    </linearGradient>
    <linearGradient id="Unbenannter_Verlauf_14-2" data-name="Unbenannter Verlauf 14" x1="177.17" y1="-2689.17" x2="177.17" y2="-2968.5" gradientTransform="translate(-1948.4 2052.17) rotate(45)" xlink:href="#Unbenannter_Verlauf_14"/>
    <linearGradient id="Unbenannter_Verlauf_14-3" data-name="Unbenannter Verlauf 14" x1="207.82" y1="-2689.17" x2="207.82" y2="-2968.5" gradientTransform="translate(-1939.42 2030.5) rotate(45)" xlink:href="#Unbenannter_Verlauf_14"/>
  </defs>
  <polygon class="cls-4" points="347.48 177.17 207.82 37.5 192.49 52.83 177.16 37.5 161.84 52.83 146.51 37.5 6.85 177.17 146.51 316.83 161.84 301.5 177.17 316.83 192.49 301.5 207.82 316.83 347.48 177.17"/>
  <rect class="cls-1" x="47.75" y="78.41" width="197.51" height="197.51" transform="translate(-82.36 155.49) rotate(-45)"/>
  <rect class="cls-2" x="78.41" y="78.41" width="197.51" height="197.51" transform="translate(-73.38 177.17) rotate(-45)"/>
  <rect class="cls-3" x="109.07" y="78.41" width="197.51" height="197.51" transform="translate(-64.41 198.84) rotate(-45)"/>
  <g>
    <path class="cls-4" d="M207.99,228.19c-1.66,0-3-1.34-3-3v-84.04c0-8.27,6.73-15.01,15.01-15.01h44.42c3.64,0,6.61,2.96,6.61,6.6v78.72c0,1.66-1.34,3-3,3s-3-1.34-3-3v-78.72c0-.33-.27-.6-.6-.6h-44.42c-4.97,0-9,4.04-9,9v84.04c0,1.66-1.34,3-3,3Z"/>
    <path class="cls-4" d="M207.99,228.19c-1.66,0-3-1.34-3-3v-84.04c0-4.97-4.04-9-9-9h-44.42c-.33,0-.6,.27-.6,.6v78.72c0,1.66-1.34,3-3,3s-3-1.34-3-3v-78.72c0-3.64,2.96-6.6,6.6-6.6h44.42c8.28,0,15.01,6.73,15.01,15.01v84.04c0,1.66-1.34,3-3,3Z"/>
    <path class="cls-4" d="M268.02,216.18h-48.02c-1.66,0-3-1.34-3-3s1.34-3,3-3h48.02c1.66,0,3,1.34,3,3s-1.34,3-3,3Z"/>
    <path class="cls-4" d="M195.98,216.18h-48.02c-1.66,0-3-1.34-3-3s1.34-3,3-3h48.02c1.66,0,3,1.34,3,3s-1.34,3-3,3Z"/>
    <path class="cls-4" d="M207.99,228.19c-1.66,0-3-1.34-3-3,0-8.28,6.73-15.01,15.01-15.01,1.66,0,3,1.34,3,3s-1.34,3-3,3c-4.97,0-9,4.04-9,9,0,1.66-1.34,3-3,3Z"/>
    <path class="cls-4" d="M207.99,228.19c-1.66,0-3-1.34-3-3,0-4.97-4.04-9-9-9-1.66,0-3-1.34-3-3s1.34-3,3-3c8.28,0,15.01,6.73,15.01,15.01,0,1.66-1.34,3-3,3Z"/>
  </g>
  <g class="cls-5">
    <path class="cls-4" d="M195.98,150.15h-36.02c-1.66,0-3-1.34-3-3s1.34-3,3-3h36.02c1.66,0,3,1.34,3,3s-1.34,3-3,3Z"/>
  </g>
  <g class="cls-5">
    <path class="cls-4" d="M195.98,167.78h-36.02c-1.66,0-3-1.34-3-3s1.34-3,3-3h36.02c1.66,0,3,1.34,3,3s-1.34,3-3,3Z"/>
  </g>
  <g class="cls-5">
    <path class="cls-4" d="M195.98,185.4h-36.02c-1.66,0-3-1.34-3-3s1.34-3,3-3h36.02c1.66,0,3,1.34,3,3s-1.34,3-3,3Z"/>
  </g>
</svg>