<?xml version="1.0" encoding="UTF-8"?>
<svg id="Ebene_1" data-name="Ebene 1" xmlns="http://www.w3.org/2000/svg" xmlns:xlink="http://www.w3.org/1999/xlink" viewBox="0 0 354.33 354.33">
  <defs>
    <style>
      .cls-1 {
        fill: url(#Unbenannter_Verlauf_14);
        opacity: .3;
      }

      .cls-2 {
        fill: url(#Unbenannter_Verlauf_14-2);
        opacity: .55;
      }

      .cls-3 {
        fill: url(#Unbenannter_Verlauf_14-3);
        opacity: .83;
      }

      .cls-4 {
        fill: #fff;
      }

      .cls-5 {
        opacity: .5;
      }
    </style>
    <linearGradient id="Unbenannter_Verlauf_14" data-name="Unbenannter Verlauf 14" x1="146.51" y1="-2689.17" x2="146.51" y2="-2968.5" gradientTransform="translate(-1957.38 2073.85) rotate(45)" gradientUnits="userSpaceOnUse">
      <stop offset=".01" stop-color="#000"/>
      <stop offset=".84" stop-color="#999"/>
    </linearGradient>
    <linearGradient id="Unbenannter_Verlauf_14-2" data-name="Unbenannter Verlauf 14" x1="177.17" y1="-2689.17" x2="177.17" y2="-2968.5" gradientTransform="translate(-1948.4 2052.17) rotate(45)" xlink:href="#Unbenannter_Verlauf_14"/>
    <linearGradient id="Unbenannter_Verlauf_14-3" data-name="Unbenannter Verlauf 14" x1="207.82" y1="-2689.17" x2="207.82" y2="-2968.5" gradientTransform="translate(-1939.42 2030.5) rotate(45)" xlink:href="#Unbenannter_Verlauf_14"/>
  </defs>
  <polygon class="cls-4" points="347.48 177.17 207.82 37.5 192.49 52.83 177.16 37.5 161.84 52.83 146.51 37.5 6.85 177.17 146.51 316.83 161.84 301.5 177.17 316.83 192.49 301.5 207.82 316.83 347.48 177.17"/>
  <rect class="cls-1" x="47.75" y="78.41" width="197.51" height="197.51" transform="translate(-82.36 155.49) rotate(-45)"/>
  <rect class="cls-2" x="78.41" y="78.41" width="197.51" height="197.51" transform="translate(-73.38 177.17) rotate(-45)"/>
  <rect class="cls-3" x="109.07" y="78.41" width="197.51" height="197.51" transform="translate(-64.41 198.84) rotate(-45)"/>
  <path class="cls-4" d="M253.27,223.97h-89.81c-8.85,0-16.04-7.2-16.04-16.04v-57.74c0-8.84,7.19-16.04,16.04-16.04h89.81c8.85,0,16.04,7.2,16.04,16.04v57.74c0,8.84-7.19,16.04-16.04,16.04Zm-89.81-83.4c-5.31,0-9.62,4.32-9.62,9.62v57.74c0,5.31,4.32,9.62,9.62,9.62h89.81c5.31,0,9.62-4.32,9.62-9.62v-57.74c0-5.31-4.32-9.62-9.62-9.62h-89.81Z"/>
  <g class="cls-5">
    <path class="cls-4" d="M237.23,182.27c-1.77,0-3.21-1.44-3.21-3.21s1.44-3.21,3.21-3.21,3.21,1.44,3.21,3.21-1.44,3.21-3.21,3.21Z"/>
    <path class="cls-4" d="M237.23,185.48c-3.54,0-6.42-2.88-6.42-6.42s2.88-6.42,6.42-6.42,6.42,2.88,6.42,6.42-2.88,6.42-6.42,6.42Zm0-6.42h0v0Z"/>
  </g>
  <path class="cls-4" d="M153.83,150.2h-6.42v-2.97c0-7.25,4.89-13.63,11.9-15.5l70.57-18.82c4.85-1.3,9.92-.28,13.91,2.78,3.98,3.06,6.26,7.7,6.26,12.72v8.96h-6.42v-8.96c0-3.01-1.37-5.79-3.76-7.63-2.39-1.83-5.44-2.45-8.34-1.67l-70.57,18.82c-4.2,1.12-7.14,4.95-7.14,9.3v2.97Z"/>
</svg>