<?xml version="1.0" encoding="UTF-8"?>
<svg id="Ebene_1" data-name="Ebene 1" xmlns="http://www.w3.org/2000/svg" xmlns:xlink="http://www.w3.org/1999/xlink" viewBox="0 0 354.33 354.33">
  <defs>
    <style>
      .cls-1 {
        fill: url(#Unbenannter_Verlauf_14);
        opacity: .3;
      }

      .cls-2 {
        fill: url(#Unbenannter_Verlauf_14-2);
        opacity: .55;
      }

      .cls-3 {
        fill: url(#Unbenannter_Verlauf_14-3);
        opacity: .83;
      }

      .cls-4 {
        fill: #fff;
      }

      .cls-5 {
        opacity: .5;
      }
    </style>
    <linearGradient id="Unbenannter_Verlauf_14" data-name="Unbenannter Verlauf 14" x1="146.51" y1="-2689.17" x2="146.51" y2="-2968.5" gradientTransform="translate(-1957.38 2073.85) rotate(45)" gradientUnits="userSpaceOnUse">
      <stop offset=".01" stop-color="#000"/>
      <stop offset=".84" stop-color="#999"/>
    </linearGradient>
    <linearGradient id="Unbenannter_Verlauf_14-2" data-name="Unbenannter Verlauf 14" x1="177.17" y1="-2689.17" x2="177.17" y2="-2968.5" gradientTransform="translate(-1948.4 2052.17) rotate(45)" xlink:href="#Unbenannter_Verlauf_14"/>
    <linearGradient id="Unbenannter_Verlauf_14-3" data-name="Unbenannter Verlauf 14" x1="207.82" y1="-2689.17" x2="207.82" y2="-2968.5" gradientTransform="translate(-1939.42 2030.5) rotate(45)" xlink:href="#Unbenannter_Verlauf_14"/>
  </defs>
  <polygon class="cls-4" points="347.48 177.17 207.82 37.5 192.49 52.83 177.16 37.5 161.84 52.83 146.51 37.5 6.85 177.17 146.51 316.83 161.84 301.5 177.17 316.83 192.49 301.5 207.82 316.83 347.48 177.17"/>
  <rect class="cls-1" x="47.75" y="78.41" width="197.51" height="197.51" transform="translate(-82.36 155.49) rotate(-45)"/>
  <rect class="cls-2" x="78.41" y="78.41" width="197.51" height="197.51" transform="translate(-73.38 177.17) rotate(-45)"/>
  <rect class="cls-3" x="109.07" y="78.41" width="197.51" height="197.51" transform="translate(-64.41 198.84) rotate(-45)"/>
  <path class="cls-4" d="M190.58,227.91l-2.02-1.97c-1.69-1.66-41.51-40.74-41.51-64.77s19.53-44.69,43.53-44.69,43.53,20.05,43.53,44.69-39.81,63.11-41.51,64.77l-2.02,1.97Zm0-105.63c-20.8,0-37.73,17.44-37.73,38.89,0,18.74,29.62,50.29,37.73,58.57,8.11-8.28,37.73-39.84,37.73-58.57,0-21.44-16.93-38.89-37.73-38.89Z"/>
  <g>
    <path class="cls-4" d="M190.58,165.82c3.21,0,5.8-2.6,5.8-5.8s-2.6-5.8-5.8-5.8-5.8,2.6-5.8,5.8,2.6,5.8,5.8,5.8Z"/>
    <path class="cls-4" d="M190.58,168.72c-4.8,0-8.71-3.91-8.71-8.71s3.91-8.71,8.71-8.71,8.71,3.91,8.71,8.71-3.91,8.71-8.71,8.71Zm0-11.61c-1.6,0-2.9,1.3-2.9,2.9s1.3,2.9,2.9,2.9,2.9-1.3,2.9-2.9-1.3-2.9-2.9-2.9Z"/>
  </g>
  <g class="cls-5">
    <path class="cls-4" d="M248.62,238.37c-1.6,0-2.9-1.3-2.9-2.9v-14.51h-14.51c-1.6,0-2.9-1.3-2.9-2.9s1.3-2.9,2.9-2.9h14.51v-14.51c0-1.6,1.3-2.9,2.9-2.9s2.9,1.3,2.9,2.9v14.51h14.51c1.6,0,2.9,1.3,2.9,2.9s-1.3,2.9-2.9,2.9h-14.51v14.51c0,1.6-1.3,2.9-2.9,2.9Z"/>
  </g>
</svg>