<?xml version="1.0" encoding="UTF-8"?>
<svg id="Ebene_1" data-name="Ebene 1" xmlns="http://www.w3.org/2000/svg" xmlns:xlink="http://www.w3.org/1999/xlink" viewBox="0 0 354.33 354.33">
  <defs>
    <style>
      .cls-1 {
        fill: url(#Unbenannter_Verlauf_14);
        opacity: .3;
      }

      .cls-2 {
        fill: url(#Unbenannter_Verlauf_14-2);
        opacity: .55;
      }

      .cls-3 {
        fill: url(#Unbenannter_Verlauf_14-3);
        opacity: .83;
      }

      .cls-4 {
        fill: #fff;
      }

      .cls-5 {
        opacity: .5;
      }
    </style>
    <linearGradient id="Unbenannter_Verlauf_14" data-name="Unbenannter Verlauf 14" x1="146.51" y1="-2689.17" x2="146.51" y2="-2968.5" gradientTransform="translate(-1957.38 2073.85) rotate(45)" gradientUnits="userSpaceOnUse">
      <stop offset=".01" stop-color="#000"/>
      <stop offset=".84" stop-color="#999"/>
    </linearGradient>
    <linearGradient id="Unbenannter_Verlauf_14-2" data-name="Unbenannter Verlauf 14" x1="177.17" y1="-2689.17" x2="177.17" y2="-2968.5" gradientTransform="translate(-1948.4 2052.17) rotate(45)" xlink:href="#Unbenannter_Verlauf_14"/>
    <linearGradient id="Unbenannter_Verlauf_14-3" data-name="Unbenannter Verlauf 14" x1="207.82" y1="-2689.17" x2="207.82" y2="-2968.5" gradientTransform="translate(-1939.42 2030.5) rotate(45)" xlink:href="#Unbenannter_Verlauf_14"/>
  </defs>
  <polygon class="cls-4" points="347.48 177.17 207.82 37.5 192.49 52.83 177.16 37.5 161.84 52.83 146.51 37.5 6.85 177.17 146.51 316.83 161.84 301.5 177.17 316.83 192.49 301.5 207.82 316.83 347.48 177.17"/>
  <rect class="cls-1" x="47.75" y="78.41" width="197.51" height="197.51" transform="translate(-82.36 155.49) rotate(-45)"/>
  <rect class="cls-2" x="78.41" y="78.41" width="197.51" height="197.51" transform="translate(-73.38 177.17) rotate(-45)"/>
  <rect class="cls-3" x="109.07" y="78.41" width="197.51" height="197.51" transform="translate(-64.41 198.84) rotate(-45)"/>
  <path class="cls-4" d="M159.85,224.69c-2.95,0-5.72-.7-8.11-1.84-7.97-3.81-14.25-14.09-10.83-26.39,5.48-19.76,10.19-38.35,14.54-55.7,1.64-6.55,7.5-11.13,14.26-11.13h75.71c6.72,0,12.62,4.54,14.35,11.05,2.37,8.86,6.92,25.64,15.3,55.78,3.42,12.3-2.87,22.59-10.83,26.39-7.28,3.48-18.11,2.88-26.73-9.19-.94-1.33-.64-3.16,.68-4.11,1.33-.94,3.16-.64,4.11,.68,5.53,7.75,12.79,10.48,19.41,7.31,5.58-2.66,10.37-9.9,7.71-19.51-8.38-30.17-12.94-46.97-15.32-55.84-1.04-3.93-4.61-6.68-8.67-6.68h-75.71c-4.05,0-7.57,2.74-8.55,6.68-4.36,17.39-9.08,36.02-14.58,55.84-2.67,9.61,2.12,16.85,7.7,19.51,6.61,3.16,13.88,.43,19.41-7.31,.95-1.31,2.77-1.62,4.11-.68,1.32,.95,1.62,2.78,.68,4.11-5.79,8.11-12.58,11.04-18.62,11.04Z"/>
  <g class="cls-5">
    <path class="cls-4" d="M219.32,159.03h-23.52c-8.11,0-14.7-6.59-14.7-14.7v-11.76c0-1.62,1.31-2.94,2.94-2.94s2.94,1.31,2.94,2.94v11.76c0,4.86,3.96,8.82,8.82,8.82h23.52c4.86,0,8.82-3.96,8.82-8.82v-11.76c0-1.62,1.31-2.94,2.94-2.94s2.94,1.31,2.94,2.94v11.76c0,8.11-6.59,14.7-14.7,14.7Z"/>
  </g>
  <g class="cls-5">
    <path class="cls-4" d="M184.05,206.07c-8.11,0-14.7-6.59-14.7-14.7s6.59-14.7,14.7-14.7,14.7,6.59,14.7,14.7-6.59,14.7-14.7,14.7Zm0-23.52c-4.86,0-8.82,3.96-8.82,8.82s3.96,8.82,8.82,8.82,8.82-3.96,8.82-8.82-3.96-8.82-8.82-8.82Z"/>
  </g>
  <g class="cls-5">
    <path class="cls-4" d="M231.08,206.07c-8.11,0-14.7-6.59-14.7-14.7s6.59-14.7,14.7-14.7,14.7,6.59,14.7,14.7-6.59,14.7-14.7,14.7Zm0-23.52c-4.86,0-8.82,3.96-8.82,8.82s3.96,8.82,8.82,8.82,8.82-3.96,8.82-8.82-3.96-8.82-8.82-8.82Z"/>
  </g>
</svg>