<?xml version="1.0" encoding="UTF-8"?>
<svg id="Ebene_1" data-name="Ebene 1" xmlns="http://www.w3.org/2000/svg" xmlns:xlink="http://www.w3.org/1999/xlink" viewBox="0 0 354.33 354.33">
  <defs>
    <style>
      .cls-1 {
        fill: url(#Unbenannter_Verlauf_14);
        opacity: .3;
      }

      .cls-2 {
        fill: url(#Unbenannter_Verlauf_14-2);
        opacity: .55;
      }

      .cls-3 {
        fill: url(#Unbenannter_Verlauf_14-3);
        opacity: .83;
      }

      .cls-4 {
        fill: #fff;
      }

      .cls-5 {
        opacity: .5;
      }
    </style>
    <linearGradient id="Unbenannter_Verlauf_14" data-name="Unbenannter Verlauf 14" x1="146.51" y1="-2689.17" x2="146.51" y2="-2968.5" gradientTransform="translate(-1957.38 2073.85) rotate(45)" gradientUnits="userSpaceOnUse">
      <stop offset=".01" stop-color="#000"/>
      <stop offset=".84" stop-color="#999"/>
    </linearGradient>
    <linearGradient id="Unbenannter_Verlauf_14-2" data-name="Unbenannter Verlauf 14" x1="177.17" y1="-2689.17" x2="177.17" y2="-2968.5" gradientTransform="translate(-1948.4 2052.17) rotate(45)" xlink:href="#Unbenannter_Verlauf_14"/>
    <linearGradient id="Unbenannter_Verlauf_14-3" data-name="Unbenannter Verlauf 14" x1="207.82" y1="-2689.17" x2="207.82" y2="-2968.5" gradientTransform="translate(-1939.42 2030.5) rotate(45)" xlink:href="#Unbenannter_Verlauf_14"/>
  </defs>
  <polygon class="cls-4" points="347.48 177.17 207.82 37.5 192.49 52.83 177.16 37.5 161.84 52.83 146.51 37.5 6.85 177.17 146.51 316.83 161.84 301.5 177.17 316.83 192.49 301.5 207.82 316.83 347.48 177.17"/>
  <rect class="cls-1" x="47.75" y="78.41" width="197.51" height="197.51" transform="translate(-82.36 155.49) rotate(-45)"/>
  <rect class="cls-2" x="78.41" y="78.41" width="197.51" height="197.51" transform="translate(-73.38 177.17) rotate(-45)"/>
  <rect class="cls-3" x="109.07" y="78.41" width="197.51" height="197.51" transform="translate(-64.41 198.84) rotate(-45)"/>
  <path class="cls-4" d="M150.84,210.92c-.84,0-1.66-.33-2.27-.94-.86-.86-1.16-2.15-.77-3.3l5.98-17.53c.35-1.43,1.22-2.98,2.46-4.22l73.01-73.01c2.66-2.67,7.33-2.67,9.99,0l7.38,7.38c2.75,2.76,2.75,7.23,0,9.99l-73.01,73.02c-1.24,1.23-2.79,2.11-4.47,2.53l-17.26,5.91c-.34,.11-.69,.17-1.04,.17Zm83.11-94.46h-.16l-73.01,73.01c-.41,.41-.7,.93-.85,1.49l-3.95,11.6,11.34-3.88c.82-.21,1.34-.51,1.75-.92l73.01-73.01c.25-.25,.25-.67,0-.92l-7.38-7.38s-.5,0-.76,0Z"/>
  <g class="cls-5">
    <path class="cls-4" d="M172.02,210.92c-7.86,0-15.27-.03-21.23-.1-1.77-.03-3.19-1.48-3.17-3.25,.02-1.77,1.25-3.36,3.25-3.17,12.38,.16,31.1,.09,47.01,.04l17.11-.04c11.7,0,12-1.45,12.35-3.11-.17-1.02-3.71-3.07-5.41-4.06-3.43-1.99-6.68-3.88-7.29-7.04-.21-1.07-.17-2.71,1.17-4.42,4.74-6.03,13.4-2.71,21.04,.22,2.95,1.12,9.07,3.48,10.22,2.64,.18-1.89-4.34-5.34-5.83-6.48-2.49-1.9-3.86-2.95-4.27-4.62-.71-2.8,.21-4.64,1.11-5.68,2.83-3.29,8.73-2.69,13.93-2.16,1.2,.12,2.31,.24,3.19,.26,4.22,.15,8.95,.07,11.81-2.47,1.32-1.17,3.34-1.06,4.53,.27,1.17,1.32,1.06,3.35-.27,4.53-4.39,3.9-10.45,4.24-16.27,4.09-1-.03-2.26-.16-3.64-.3-1.87-.18-5.9-.59-7.76-.23,.48,.38,1.06,.83,1.55,1.2,4.07,3.11,9.63,7.37,8.37,12.59-.66,2.71-2.25,4.04-3.47,4.67-3.97,2.09-9.31,.03-15.48-2.33-4.62-1.77-10.81-4.17-13.18-2.71,.9,.74,2.64,1.75,3.78,2.42,4.27,2.48,9.6,5.57,8.47,10.93-1.35,6.36-5.53,8.2-18.63,8.2l-17.09,.04c-8.3,.03-17.36,.06-25.89,.06Z"/>
  </g>
</svg>