<?xml version="1.0" encoding="UTF-8"?>
<svg id="Ebene_1" data-name="Ebene 1" xmlns="http://www.w3.org/2000/svg" xmlns:xlink="http://www.w3.org/1999/xlink" viewBox="0 0 354.33 354.33">
  <defs>
    <style>
      .cls-1 {
        fill: url(#Unbenannter_Verlauf_14);
        opacity: .3;
      }

      .cls-2 {
        fill: url(#Unbenannter_Verlauf_14-2);
        opacity: .55;
      }

      .cls-3 {
        fill: url(#Unbenannter_Verlauf_14-3);
        opacity: .83;
      }

      .cls-4 {
        fill: #fff;
      }

      .cls-5 {
        opacity: .5;
      }
    </style>
    <linearGradient id="Unbenannter_Verlauf_14" data-name="Unbenannter Verlauf 14" x1="146.51" y1="-2689.17" x2="146.51" y2="-2968.5" gradientTransform="translate(-1957.38 2073.85) rotate(45)" gradientUnits="userSpaceOnUse">
      <stop offset=".01" stop-color="#000"/>
      <stop offset=".84" stop-color="#999"/>
    </linearGradient>
    <linearGradient id="Unbenannter_Verlauf_14-2" data-name="Unbenannter Verlauf 14" x1="177.17" y1="-2689.17" x2="177.17" y2="-2968.5" gradientTransform="translate(-1948.4 2052.17) rotate(45)" xlink:href="#Unbenannter_Verlauf_14"/>
    <linearGradient id="Unbenannter_Verlauf_14-3" data-name="Unbenannter Verlauf 14" x1="207.82" y1="-2689.17" x2="207.82" y2="-2968.5" gradientTransform="translate(-1939.42 2030.5) rotate(45)" xlink:href="#Unbenannter_Verlauf_14"/>
  </defs>
  <polygon class="cls-4" points="347.48 177.17 207.82 37.5 192.49 52.83 177.16 37.5 161.84 52.83 146.51 37.5 6.85 177.17 146.51 316.83 161.84 301.5 177.17 316.83 192.49 301.5 207.82 316.83 347.48 177.17"/>
  <rect class="cls-1" x="47.75" y="78.41" width="197.51" height="197.51" transform="translate(-82.36 155.49) rotate(-45)"/>
  <rect class="cls-2" x="78.41" y="78.41" width="197.51" height="197.51" transform="translate(-73.38 177.17) rotate(-45)"/>
  <rect class="cls-3" x="109.07" y="78.41" width="197.51" height="197.51" transform="translate(-64.41 198.84) rotate(-45)"/>
  <path class="cls-4" d="M256.87,232.44h-97.76c-3.53,0-6.4-2.87-6.4-6.4v-97.75c0-3.53,2.87-6.4,6.4-6.4h97.76c3.53,0,6.4,2.88,6.4,6.4v97.75c0,3.53-2.87,6.4-6.4,6.4Zm-97.76-104.73c-.32,0-.58,.26-.58,.59v97.75c0,.32,.26,.58,.58,.58h97.76c.32,0,.58-.26,.58-.58v-97.75c0-.32-.26-.59-.58-.59h-97.76Z"/>
  <g class="cls-5">
    <path class="cls-4" d="M173.08,203.35c-1.61,0-2.91-1.3-2.91-2.91v-58.18c0-1.61,1.3-2.91,2.91-2.91s2.91,1.3,2.91,2.91v58.18c0,1.61-1.3,2.91-2.91,2.91Z"/>
  </g>
  <g class="cls-5">
    <path class="cls-4" d="M196.35,162.62c-1.61,0-2.91-1.3-2.91-2.91v-17.46c0-1.61,1.3-2.91,2.91-2.91s2.91,1.3,2.91,2.91v17.46c0,1.61-1.3,2.91-2.91,2.91Z"/>
  </g>
  <g class="cls-5">
    <path class="cls-4" d="M219.63,185.89c-1.61,0-2.91-1.3-2.91-2.91v-40.73c0-1.61,1.3-2.91,2.91-2.91s2.91,1.3,2.91,2.91v40.73c0,1.61-1.3,2.91-2.91,2.91Z"/>
  </g>
  <g class="cls-5">
    <path class="cls-4" d="M242.9,174.26c-1.61,0-2.91-1.3-2.91-2.91v-29.09c0-1.61,1.3-2.91,2.91-2.91s2.91,1.3,2.91,2.91v29.09c0,1.61-1.3,2.91-2.91,2.91Z"/>
  </g>
</svg>