<?xml version="1.0" encoding="UTF-8"?>
<svg id="Ebene_1" data-name="Ebene 1" xmlns="http://www.w3.org/2000/svg" xmlns:xlink="http://www.w3.org/1999/xlink" viewBox="0 0 354.33 354.33">
  <defs>
    <style>
      .cls-1 {
        fill: url(#Unbenannter_Verlauf_14);
        opacity: .3;
      }

      .cls-2 {
        fill: url(#Unbenannter_Verlauf_14-2);
        opacity: .55;
      }

      .cls-3 {
        fill: url(#Unbenannter_Verlauf_14-3);
        opacity: .83;
      }

      .cls-4 {
        fill: #fff;
      }

      .cls-5 {
        opacity: .5;
      }
    </style>
    <linearGradient id="Unbenannter_Verlauf_14" data-name="Unbenannter Verlauf 14" x1="146.51" y1="-2689.17" x2="146.51" y2="-2968.5" gradientTransform="translate(-1957.38 2073.85) rotate(45)" gradientUnits="userSpaceOnUse">
      <stop offset=".01" stop-color="#000"/>
      <stop offset=".84" stop-color="#999"/>
    </linearGradient>
    <linearGradient id="Unbenannter_Verlauf_14-2" data-name="Unbenannter Verlauf 14" x1="177.17" y1="-2689.17" x2="177.17" y2="-2968.5" gradientTransform="translate(-1948.4 2052.17) rotate(45)" xlink:href="#Unbenannter_Verlauf_14"/>
    <linearGradient id="Unbenannter_Verlauf_14-3" data-name="Unbenannter Verlauf 14" x1="207.82" y1="-2689.17" x2="207.82" y2="-2968.5" gradientTransform="translate(-1939.42 2030.5) rotate(45)" xlink:href="#Unbenannter_Verlauf_14"/>
  </defs>
  <polygon class="cls-4" points="347.48 177.17 207.82 37.5 192.49 52.83 177.16 37.5 161.84 52.83 146.51 37.5 6.85 177.17 146.51 316.83 161.84 301.5 177.17 316.83 192.49 301.5 207.82 316.83 347.48 177.17"/>
  <rect class="cls-1" x="47.75" y="78.41" width="197.51" height="197.51" transform="translate(-82.36 155.49) rotate(-45)"/>
  <rect class="cls-2" x="78.41" y="78.41" width="197.51" height="197.51" transform="translate(-73.38 177.17) rotate(-45)"/>
  <rect class="cls-3" x="109.07" y="78.41" width="197.51" height="197.51" transform="translate(-64.41 198.84) rotate(-45)"/>
  <path class="cls-4" d="M238.75,250.84h-61.53c-4.14,0-7.51-3.36-7.51-7.5V110.99c0-4.14,3.37-7.5,7.51-7.5h61.53c4.14,0,7.51,3.37,7.51,7.5V243.35c0,4.14-3.37,7.5-7.51,7.5Zm-61.53-140.29l-.43,132.79,61.96,.43c.24,0,.43-.19,.43-.43V110.99l-61.96-.43Z"/>
  <path class="cls-4" d="M207.99,153.18c-9.99,0-18.12-8.13-18.12-18.12s8.13-18.13,18.12-18.13,18.13,8.13,18.13,18.13-8.13,18.12-18.13,18.12Zm0-29.18c-6.1,0-11.05,4.96-11.05,11.06s4.96,11.05,11.05,11.05,11.06-4.96,11.06-11.05-4.96-11.06-11.06-11.06Z"/>
  <path class="cls-4" d="M207.99,195.29c-9.99,0-18.12-8.13-18.12-18.12s8.13-18.13,18.12-18.13,18.13,8.13,18.13,18.13-8.13,18.12-18.13,18.12Zm0-29.18c-6.1,0-11.05,4.96-11.05,11.06s4.96,11.05,11.05,11.05,11.06-4.96,11.06-11.05-4.96-11.06-11.06-11.06Z"/>
  <g class="cls-5">
    <path class="cls-4" d="M207.99,237.4c-9.99,0-18.12-8.13-18.12-18.12s8.13-18.13,18.12-18.13,18.13,8.13,18.13,18.13-8.13,18.12-18.13,18.12Zm0-29.18c-6.1,0-11.05,4.96-11.05,11.06s4.96,11.05,11.05,11.05,11.06-4.96,11.06-11.05-4.96-11.06-11.06-11.06Z"/>
  </g>
</svg>