<?xml version="1.0" encoding="UTF-8"?>
<svg id="Ebene_1" data-name="Ebene 1" xmlns="http://www.w3.org/2000/svg" xmlns:xlink="http://www.w3.org/1999/xlink" viewBox="0 0 354.33 354.33">
  <defs>
    <style>
      .cls-1 {
        fill: url(#Unbenannter_Verlauf_15);
        opacity: .3;
      }

      .cls-2 {
        fill: url(#Unbenannter_Verlauf_16);
        opacity: .55;
      }

      .cls-3 {
        fill: url(#Unbenannter_Verlauf_14);
        opacity: .83;
      }

      .cls-4 {
        fill: #fff;
      }

      .cls-5 {
        opacity: .5;
      }
    </style>
    <linearGradient id="Unbenannter_Verlauf_15" data-name="Unbenannter Verlauf 15" x1="146.51" y1="-2689.17" x2="146.51" y2="-2968.5" gradientTransform="translate(-1957.38 2073.85) rotate(45)" gradientUnits="userSpaceOnUse">
      <stop offset=".01" stop-color="#000"/>
      <stop offset=".84" stop-color="#999"/>
    </linearGradient>
    <linearGradient id="Unbenannter_Verlauf_16" data-name="Unbenannter Verlauf 16" x1="177.17" y1="-2689.17" x2="177.17" y2="-2968.5" gradientTransform="translate(-1948.4 2052.17) rotate(45)" gradientUnits="userSpaceOnUse">
      <stop offset=".01" stop-color="#000"/>
      <stop offset=".84" stop-color="#999"/>
    </linearGradient>
    <linearGradient id="Unbenannter_Verlauf_14" data-name="Unbenannter Verlauf 14" x1="207.82" y1="-2689.17" x2="207.82" y2="-2968.5" gradientTransform="translate(-1939.42 2030.5) rotate(45)" gradientUnits="userSpaceOnUse">
      <stop offset=".01" stop-color="#000"/>
      <stop offset=".84" stop-color="#999"/>
    </linearGradient>
  </defs>
  <polygon class="cls-4" points="347.48 177.17 207.82 37.5 192.49 52.83 177.16 37.5 161.84 52.83 146.51 37.5 6.85 177.17 146.51 316.83 161.84 301.5 177.17 316.83 192.49 301.5 207.82 316.83 347.48 177.17"/>
  <rect class="cls-1" x="47.75" y="78.41" width="197.51" height="197.51" transform="translate(-82.36 155.49) rotate(-45)"/>
  <rect class="cls-2" x="78.41" y="78.41" width="197.51" height="197.51" transform="translate(-73.38 177.17) rotate(-45)"/>
  <rect class="cls-3" x="109.07" y="78.41" width="197.51" height="197.51" transform="translate(-64.41 198.84) rotate(-45)"/>
  <path class="cls-4" d="M199.73,237.28h-36.55c-3.46,0-6.28-2.82-6.28-6.28V123.63c0-3.46,2.82-6.28,6.28-6.28h66.54c1.68,0,3.26,.66,4.45,1.84l17.98,17.98c1.17,1.17,1.84,2.79,1.84,4.44v35.7c0,1.58-1.28,2.86-2.86,2.86s-2.86-1.28-2.86-2.86v-35.7l-18.15-18.39-66.94-.17c-.31,0-.57,.26-.57,.57v107.37c0,.31,.26,.57,.57,.57h36.55c1.58,0,2.86,1.28,2.86,2.86s-1.28,2.86-2.86,2.86Z"/>
  <path class="cls-4" d="M199.73,191.59h-17.13c-1.58,0-2.86-1.28-2.86-2.86s1.28-2.86,2.86-2.86h17.13c1.58,0,2.86,1.28,2.86,2.86s-1.28,2.86-2.86,2.86Zm28.56-22.84h-45.69c-1.58,0-2.86-1.28-2.86-2.86s1.28-2.86,2.86-2.86h45.69c1.58,0,2.86,1.28,2.86,2.86s-1.28,2.86-2.86,2.86Zm-22.84-22.84h-22.84c-1.58,0-2.86-1.28-2.86-2.86s1.28-2.86,2.86-2.86h22.84c1.58,0,2.86,1.28,2.86,2.86s-1.28,2.86-2.86,2.86Z"/>
  <g>
    <path class="cls-4" d="M228.28,139.62v-17.4c0-1.12,.9-2.02,2.02-2.02,.54,0,1.05,.21,1.43,.59l18.81,18.81c.38,.38,.59,.89,.59,1.43,0,1.12-.9,2.02-2.02,2.02h-17.4c-1.89,0-3.43-1.53-3.43-3.43Z"/>
    <path class="cls-4" d="M249.1,145.9h-17.4c-3.46,0-6.28-2.82-6.28-6.28v-17.4c0-2.69,2.19-4.87,4.87-4.87,1.3,0,2.53,.51,3.45,1.43l18.8,18.81c.91,.9,1.43,2.16,1.43,3.45,0,2.69-2.19,4.87-4.88,4.87Zm-.59-4.28h0Zm-17.38-17.38v15.38c0,.32,.26,.57,.57,.57h15.38l-15.95-15.95Z"/>
  </g>
  <g class="cls-5">
    <path class="cls-4" d="M219.36,237.51c-.75,0-1.48-.3-2.02-.84-.65-.65-.94-1.56-.8-2.46l1.39-8.89c.28-1.8,1.11-3.44,2.41-4.74l22.79-22.79c3.61-3.61,9.47-3.62,13.09,0,1.75,1.75,2.72,4.08,2.72,6.55s-.96,4.8-2.72,6.54l-22.79,22.79c-1.28,1.29-2.92,2.12-4.73,2.41l-8.9,1.38c-.15,.02-.3,.03-.44,.03Zm22.1-29.97l-17.08,17.08c-.44,.44-.71,.98-.8,1.57l-.79,5.03,5.03-.78c.6-.09,1.15-.37,1.57-.8l22.8-22.8c.67-.67,1.04-1.56,1.04-2.5s-.37-1.84-1.04-2.52c-1.38-1.39-3.63-1.38-5.01,0l-5.71,5.71Z"/>
  </g>
</svg>