<?xml version="1.0" encoding="UTF-8"?>
<svg id="Ebene_1" data-name="Ebene 1" xmlns="http://www.w3.org/2000/svg" xmlns:xlink="http://www.w3.org/1999/xlink" viewBox="0 0 354.33 354.33">
  <defs>
    <style>
      .cls-1 {
        fill: url(#Unbenannter_Verlauf_14);
        opacity: .3;
      }

      .cls-2 {
        fill: url(#Unbenannter_Verlauf_14-2);
        opacity: .55;
      }

      .cls-3 {
        fill: url(#Unbenannter_Verlauf_14-3);
        opacity: .83;
      }

      .cls-4 {
        fill: #fff;
      }

      .cls-5 {
        opacity: .5;
      }
    </style>
    <linearGradient id="Unbenannter_Verlauf_14" data-name="Unbenannter Verlauf 14" x1="146.51" y1="-2689.17" x2="146.51" y2="-2968.5" gradientTransform="translate(-1957.38 2073.85) rotate(45)" gradientUnits="userSpaceOnUse">
      <stop offset=".01" stop-color="#000"/>
      <stop offset=".84" stop-color="#999"/>
    </linearGradient>
    <linearGradient id="Unbenannter_Verlauf_14-2" data-name="Unbenannter Verlauf 14" x1="177.17" y1="-2689.17" x2="177.17" y2="-2968.5" gradientTransform="translate(-1948.4 2052.17) rotate(45)" xlink:href="#Unbenannter_Verlauf_14"/>
    <linearGradient id="Unbenannter_Verlauf_14-3" data-name="Unbenannter Verlauf 14" x1="207.82" y1="-2689.17" x2="207.82" y2="-2968.5" gradientTransform="translate(-1939.42 2030.5) rotate(45)" xlink:href="#Unbenannter_Verlauf_14"/>
  </defs>
  <polygon class="cls-4" points="347.48 177.17 207.82 37.5 192.49 52.83 177.16 37.5 161.84 52.83 146.51 37.5 6.85 177.17 146.51 316.83 161.84 301.5 177.17 316.83 192.49 301.5 207.82 316.83 347.48 177.17"/>
  <rect class="cls-1" x="47.75" y="78.41" width="197.51" height="197.51" transform="translate(-82.36 155.49) rotate(-45)"/>
  <rect class="cls-2" x="78.41" y="78.41" width="197.51" height="197.51" transform="translate(-73.38 177.17) rotate(-45)"/>
  <rect class="cls-3" x="109.07" y="78.41" width="197.51" height="197.51" transform="translate(-64.41 198.84) rotate(-45)"/>
  <path class="cls-4" d="M224.59,228.28c-1.14,0-2.17-.67-2.62-1.72l-19.55-45.29c-.46-1.07-.22-2.32,.6-3.15l49.41-49.41c.94-.93,2.37-1.11,3.5-.42,1.12,.68,1.63,2.04,1.24,3.29l-29.86,94.7c-.36,1.14-1.38,1.93-2.57,1.99-.05,0-.09,0-.14,0Zm-16.17-47.49l15.75,36.48,24.05-76.28-39.8,39.8Z"/>
  <path class="cls-4" d="M205.04,182.99c-.38,0-.76-.08-1.13-.23l-45.28-19.55c-1.09-.47-1.78-1.57-1.72-2.76s.85-2.22,1.99-2.58l94.69-29.86c1.5-.46,3.1,.36,3.57,1.86,.47,1.5-.36,3.1-1.86,3.58l-87.39,27.56,38.26,16.51c1.45,.62,2.11,2.3,1.49,3.75-.46,1.08-1.51,1.72-2.62,1.72Z"/>
  <g class="cls-5">
    <path class="cls-4" d="M161.58,226.45c-.73,0-1.46-.28-2.02-.84-1.11-1.11-1.11-2.92,0-4.03l26.89-26.89c1.11-1.11,2.92-1.11,4.03,0,1.11,1.11,1.11,2.92,0,4.03l-26.89,26.89c-.56,.56-1.29,.84-2.02,.84Z"/>
  </g>
  <g class="cls-5">
    <path class="cls-4" d="M159.15,202.52c-.73,0-1.46-.28-2.02-.84-1.11-1.11-1.11-2.92,0-4.03l11.32-11.32c1.11-1.11,2.92-1.11,4.03,0,1.11,1.11,1.11,2.92,0,4.03l-11.32,11.32c-.56,.56-1.29,.84-2.02,.84Z"/>
  </g>
  <g class="cls-5">
    <path class="cls-4" d="M185.51,228.87c-.73,0-1.46-.28-2.02-.84-1.11-1.11-1.11-2.92,0-4.03l11.32-11.31c1.11-1.11,2.92-1.11,4.03,0,1.11,1.11,1.11,2.92,0,4.03l-11.32,11.31c-.56,.56-1.29,.84-2.02,.84Z"/>
  </g>
</svg>