<?xml version="1.0" encoding="UTF-8"?>
<svg id="Ebene_1" data-name="Ebene 1" xmlns="http://www.w3.org/2000/svg" viewBox="0 0 24 24">
  <defs>
    <style>
      .cls-1, .cls-2 {
        fill: none;
        stroke: #000;
        stroke-linecap: round;
        stroke-linejoin: round;
      }

      .cls-2 {
        opacity: .5;
      }
    </style>
  </defs>
  <path class="cls-1" d="M17.2,6.97L5.45,18.71c-.14,.14-.31,.24-.5,.29l-2.97,1.01,1.01-2.97c.05-.19,.15-.37,.29-.5L15.02,4.79l.63-.63c.26-.26,.67-.26,.92,0l1.25,1.25c.26,.26,.26,.67,0,.92l-.63,.63Z"/>
  <path class="cls-2" d="M1.98,20.01c2.93,.04,7.96,0,10.87,0,2.28,0,2.49-.34,2.62-.96,.22-1.06-2.72-1.56-2.06-2.41,1.12-1.43,5,1.95,5.43,.19,.2-.81-1.67-1.76-1.75-2.06-.28-1.08,1.71-.63,2.54-.61s1.76,0,2.38-.56"/>
</svg>