<?xml version="1.0" encoding="UTF-8"?>
<svg id="Ebene_1" data-name="Ebene 1" xmlns="http://www.w3.org/2000/svg" viewBox="0 0 24 24">
  <defs>
    <style>
      .cls-1, .cls-2 {
        fill: none;
      }

      .cls-1, .cls-2, .cls-3 {
        stroke: #000;
        stroke-linecap: round;
        stroke-linejoin: round;
      }

      .cls-2 {
        opacity: .5;
      }
    </style>
  </defs>
  <path class="cls-1" d="M19.57,11.98V5.73c0-.16-.06-.31-.18-.42l-3.15-3.15c-.11-.11-.27-.18-.42-.18H4.17c-.33,0-.6,.27-.6,.6V21.38c0,.33,.27,.6,.6,.6h6.4"/>
  <path class="cls-1" d="M7.57,9.98H15.57M7.57,5.98h4M7.57,13.98h3"/>
  <path class="cls-3" d="M15.57,5.38V2.33c0-.2,.16-.35,.35-.35,.09,0,.18,.04,.25,.1l3.29,3.29c.07,.07,.1,.16,.1,.25,0,.2-.16,.35-.35,.35h-3.05c-.33,0-.6-.27-.6-.6Z"/>
  <path class="cls-2" d="M17.52,16.92l1-1c.44-.44,1.15-.44,1.59,0h0c.44,.44,.44,1.15,0,1.59l-1,1m-1.59-1.59l-2.99,2.99c-.15,.15-.25,.34-.28,.55l-.24,1.56,1.56-.24c.21-.03,.4-.13,.55-.28l2.99-2.99m-1.59-1.59l1.59,1.59"/>
</svg>