<?xml version="1.0" encoding="UTF-8"?>
<svg id="Ebene_1" data-name="Ebene 1" xmlns="http://www.w3.org/2000/svg" xmlns:xlink="http://www.w3.org/1999/xlink" viewBox="0 0 354.33 354.33">
  <defs>
    <style>
      .cls-1 {
        fill: none;
      }

      .cls-2 {
        clip-path: url(#clippath);
      }

      .cls-3 {
        fill: url(#Unbenannter_Verlauf_22-2);
      }

      .cls-4 {
        fill: url(#Unbenannter_Verlauf_24-2);
      }

      .cls-5 {
        fill: #002a60;
      }

      .cls-6 {
        fill: #fff;
      }

      .cls-7 {
        clip-path: url(#clippath-1);
      }

      .cls-8 {
        clip-path: url(#clippath-3);
      }

      .cls-9 {
        clip-path: url(#clippath-2);
      }

      .cls-10 {
        opacity: .23;
      }

      .cls-11 {
        opacity: .43;
      }

      .cls-12, .cls-13 {
        opacity: .5;
      }

      .cls-14 {
        fill: url(#Unbenannter_Verlauf_25);
      }

      .cls-15 {
        fill: url(#Unbenannter_Verlauf_23);
      }

      .cls-16 {
        fill: url(#Unbenannter_Verlauf_24);
      }

      .cls-17 {
        fill: url(#Unbenannter_Verlauf_26);
      }

      .cls-18 {
        fill: url(#Unbenannter_Verlauf_29);
      }

      .cls-19 {
        fill: url(#Unbenannter_Verlauf_27);
      }

      .cls-20 {
        fill: url(#Unbenannter_Verlauf_28);
      }

      .cls-21 {
        fill: url(#Unbenannter_Verlauf_22);
      }

      .cls-22 {
        fill: url(#Unbenannter_Verlauf_20);
      }

      .cls-23 {
        fill: url(#Unbenannter_Verlauf_7);
      }

      .cls-24 {
        fill: url(#Unbenannter_Verlauf_21);
        opacity: .29;
      }

      .cls-24, .cls-25, .cls-13, .cls-26 {
        isolation: isolate;
      }

      .cls-25 {
        fill: url(#Unbenannter_Verlauf_18);
        opacity: .9;
      }

      .cls-13 {
        fill: url(#Unbenannter_Verlauf_17);
      }

      .cls-26 {
        fill: url(#Unbenannter_Verlauf_19);
        opacity: .61;
      }
    </style>
    <clipPath id="clippath">
      <rect class="cls-1" x="-398.64" y="78.41" width="197.51" height="197.51" transform="translate(-213.11 -160.16) rotate(-45)"/>
    </clipPath>
    <radialGradient id="Unbenannter_Verlauf_22" data-name="Unbenannter Verlauf 22" cx="3144.66" cy="-4263.84" fx="3144.66" fy="-4263.84" r="182.49" gradientTransform="translate(-6928.51 -6588.15) scale(2.11 -1.56)" gradientUnits="userSpaceOnUse">
      <stop offset="0" stop-color="#002a60" stop-opacity="0"/>
      <stop offset=".1" stop-color="#082a5f" stop-opacity=".1"/>
      <stop offset=".27" stop-color="#1e295d" stop-opacity=".27"/>
      <stop offset=".47" stop-color="#43285a" stop-opacity=".47"/>
      <stop offset=".7" stop-color="#752655" stop-opacity=".7"/>
      <stop offset=".95" stop-color="#b5244f" stop-opacity=".95"/>
      <stop offset="1" stop-color="#c2244e"/>
    </radialGradient>
    <clipPath id="clippath-1">
      <rect class="cls-1" x="47.6" y="78.42" width="197.49" height="197.49" transform="translate(-82.41 155.37) rotate(-45)"/>
    </clipPath>
    <linearGradient id="Unbenannter_Verlauf_24" data-name="Unbenannter Verlauf 24" x1="89.53" y1="-818.86" x2="89.53" y2="-1151.26" gradientTransform="translate(57.31 1166.62)" gradientUnits="userSpaceOnUse">
      <stop offset="0" stop-color="#c2244e"/>
      <stop offset=".03" stop-color="#b42855"/>
      <stop offset=".15" stop-color="#8a346a"/>
      <stop offset=".25" stop-color="#693d7a"/>
      <stop offset=".36" stop-color="#524486"/>
      <stop offset=".45" stop-color="#44488d"/>
      <stop offset=".54" stop-color="#3f498f"/>
      <stop offset=".88" stop-color="#2c8ae1"/>
      <stop offset="1" stop-color="#25a1ff"/>
    </linearGradient>
    <linearGradient id="Unbenannter_Verlauf_29" data-name="Unbenannter Verlauf 29" x1="-190.15" y1="-989.02" x2="89.44" y2="-989.02" gradientTransform="translate(57.31 1166.62)" gradientUnits="userSpaceOnUse">
      <stop offset=".22" stop-color="#0051b4"/>
      <stop offset="1" stop-color="#37529c" stop-opacity="0"/>
    </linearGradient>
    <radialGradient id="Unbenannter_Verlauf_28" data-name="Unbenannter Verlauf 28" cx="6000.39" cy="-2573.43" fx="6000.39" fy="-2573.43" r="68.82" gradientTransform="translate(8821.21 11609.86) rotate(-105.23) scale(2.23 2.04) skewX(.89)" gradientUnits="userSpaceOnUse">
      <stop offset=".1" stop-color="#002a60"/>
      <stop offset=".32" stop-color="#042d65" stop-opacity=".76"/>
      <stop offset=".57" stop-color="#113672" stop-opacity=".48"/>
      <stop offset=".83" stop-color="#254589" stop-opacity=".19"/>
      <stop offset="1" stop-color="#37529c" stop-opacity="0"/>
    </radialGradient>
    <linearGradient id="Unbenannter_Verlauf_27" data-name="Unbenannter Verlauf 27" x1="1250.33" y1="-1530.51" x2="1250.33" y2="-1683.45" gradientTransform="translate(-1114.91 2073.34) rotate(-9.17) scale(1.25 1)" gradientUnits="userSpaceOnUse">
      <stop offset="0" stop-color="#c2244e"/>
      <stop offset=".54" stop-color="#703f7c" stop-opacity=".61"/>
      <stop offset=".54" stop-color="#6e407d" stop-opacity=".6"/>
      <stop offset=".88" stop-color="#37529c" stop-opacity="0"/>
    </linearGradient>
    <linearGradient id="Unbenannter_Verlauf_26" data-name="Unbenannter Verlauf 26" x1="972.14" y1="-582.7" x2="959.58" y2="-441.58" gradientTransform="translate(-1135.16 1125.59) rotate(4.97) scale(1.22 2.01)" gradientUnits="userSpaceOnUse">
      <stop offset=".05" stop-color="#25a1ff"/>
      <stop offset=".47" stop-color="#108fff" stop-opacity=".74"/>
      <stop offset="1" stop-color="#0037d3" stop-opacity="0"/>
    </linearGradient>
    <linearGradient id="Unbenannter_Verlauf_25" data-name="Unbenannter Verlauf 25" x1="94.34" y1="-821.16" x2="94.34" y2="-1010.38" gradientTransform="translate(57.31 1166.62)" gradientUnits="userSpaceOnUse">
      <stop offset=".15" stop-color="#c2244e"/>
      <stop offset=".61" stop-color="#703f7c" stop-opacity=".61"/>
      <stop offset=".88" stop-color="#37529c" stop-opacity="0"/>
    </linearGradient>
    <clipPath id="clippath-2">
      <rect class="cls-1" x="78.41" y="78.41" width="197.51" height="197.51" transform="translate(-73.38 177.17) rotate(-45)"/>
    </clipPath>
    <linearGradient id="Unbenannter_Verlauf_24-2" data-name="Unbenannter Verlauf 24" x1="120.35" y1="-3641.18" x2="120.35" y2="-3308.74" gradientTransform="translate(57.31 -3293.41) scale(1 -1)" xlink:href="#Unbenannter_Verlauf_24"/>
    <linearGradient id="Unbenannter_Verlauf_23" data-name="Unbenannter Verlauf 23" x1="193.22" y1="-3350.49" x2="113.65" y2="-3546.05" gradientTransform="translate(57.31 -3293.41) scale(1 -1)" gradientUnits="userSpaceOnUse">
      <stop offset=".08" stop-color="#25a1ff"/>
      <stop offset=".23" stop-color="#1b81d5"/>
      <stop offset=".4" stop-color="#1162ab"/>
      <stop offset=".57" stop-color="#0a4a8a"/>
      <stop offset=".72" stop-color="#043873"/>
      <stop offset=".87" stop-color="#012e65"/>
      <stop offset="1" stop-color="#002a60"/>
    </linearGradient>
    <radialGradient id="Unbenannter_Verlauf_22-2" data-name="Unbenannter Verlauf 22" cx="3370.75" fx="3370.75" xlink:href="#Unbenannter_Verlauf_22"/>
    <linearGradient id="Unbenannter_Verlauf_21" data-name="Unbenannter Verlauf 21" x1="3342.71" y1="-10653.8" x2="3696.47" y2="-10653.8" gradientTransform="translate(10094.68 -5147.3) rotate(80.2) scale(1 -1)" gradientUnits="userSpaceOnUse">
      <stop offset="0" stop-color="#002a60" stop-opacity="0"/>
      <stop offset=".1" stop-color="#082a5f" stop-opacity=".1"/>
      <stop offset=".27" stop-color="#1e295d" stop-opacity=".27"/>
      <stop offset=".47" stop-color="#43285a" stop-opacity=".47"/>
      <stop offset=".7" stop-color="#752655" stop-opacity=".7"/>
      <stop offset=".89" stop-color="#b5244f" stop-opacity=".95"/>
      <stop offset="1" stop-color="#c2244e"/>
    </linearGradient>
    <linearGradient id="Unbenannter_Verlauf_20" data-name="Unbenannter Verlauf 20" x1="1286.95" y1="-3760.46" x2="1274.64" y2="-3858.35" gradientTransform="translate(-698.09 -7642.94) rotate(4.97) scale(1.22 -2.01)" gradientUnits="userSpaceOnUse">
      <stop offset=".18" stop-color="#25a1ff"/>
      <stop offset=".46" stop-color="#1a7cd5" stop-opacity=".74"/>
      <stop offset="1" stop-color="#37529c" stop-opacity="0"/>
    </linearGradient>
    <linearGradient id="Unbenannter_Verlauf_19" data-name="Unbenannter Verlauf 19" x1="781.39" y1="-2323.23" x2="790.32" y2="-2409.91" gradientTransform="translate(-4764.3 -14.43) rotate(-76.71) scale(1.22 -2.01)" gradientUnits="userSpaceOnUse">
      <stop offset=".05" stop-color="#25a1ff"/>
      <stop offset=".28" stop-color="#1a7cd5" stop-opacity=".74"/>
      <stop offset="1" stop-color="#37529c" stop-opacity="0"/>
    </linearGradient>
    <clipPath id="clippath-3">
      <rect id="rect62862-7" class="cls-1" x="109.24" y="78.42" width="197.49" height="197.49" transform="translate(-64.36 198.96) rotate(-45)"/>
    </clipPath>
    <linearGradient id="Unbenannter_Verlauf_18" data-name="Unbenannter Verlauf 18" x1="-3610.19" y1="-5032.35" x2="-3412.7" y2="-5032.35" gradientTransform="translate(3719.43 -4855.19) scale(1 -1)" gradientUnits="userSpaceOnUse">
      <stop offset="0" stop-color="#073d84"/>
      <stop offset=".84" stop-color="#003c8b" stop-opacity=".64"/>
      <stop offset="1" stop-color="#004eb5" stop-opacity=".6"/>
    </linearGradient>
    <radialGradient id="Unbenannter_Verlauf_17" data-name="Unbenannter Verlauf 17" cx="-2591.99" cy="-2753.57" fx="-2591.99" fy="-2753.57" r="98.74" gradientTransform="translate(1124.92 -12058.07) rotate(-4.61) scale(.69 -4.38)" gradientUnits="userSpaceOnUse">
      <stop offset="0" stop-color="#2295ff" stop-opacity=".65"/>
      <stop offset="1" stop-color="#2295ff" stop-opacity="0"/>
    </radialGradient>
    <radialGradient id="Unbenannter_Verlauf_7" data-name="Unbenannter Verlauf 7" cx="-1032.98" cy="-2623.81" fx="-1032.98" fy="-2623.81" r="98.74" gradientTransform="translate(14490.14 -12228.12) rotate(16.19) scale(9.86 -6.01)" gradientUnits="userSpaceOnUse">
      <stop offset="0" stop-color="#b34d4d" stop-opacity="0"/>
      <stop offset="1" stop-color="red"/>
    </radialGradient>
  </defs>
  <g class="cls-11">
    <g class="cls-2">
      <path id="path35860-8-7-6-4-2" class="cls-21" d="M91.63,421H-691.1V-284.98H91.63V421Z"/>
    </g>
  </g>
  <rect id="white_background_1" data-name="white background 1" class="cls-6" x="47.6" y="78.42" width="197.49" height="197.49" transform="translate(-82.41 155.37) rotate(-45)"/>
  <rect id="white_background_2" data-name="white background 2" class="cls-6" x="78.41" y="78.41" width="197.51" height="197.51" transform="translate(-73.38 177.17) rotate(-45)"/>
  <rect id="white_background_3" data-name="white background 3" class="cls-6" x="109.24" y="78.42" width="197.49" height="197.49" transform="translate(-64.36 198.96) rotate(-45)"/>
  <g class="cls-10">
    <g class="cls-7">
      <rect id="rect35896-3-4-6-6-2" class="cls-5" x="7.04" y="-7.87" width="279.59" height="355.63"/>
      <rect id="rect35917-90-7-5-4-2" class="cls-16" x="7.04" y="15.36" width="279.59" height="332.41"/>
      <rect id="rect35924-9-9-9-42-2" class="cls-18" x="-132.84" y="37.81" width="279.59" height="279.59"/>
      <polygon id="polygon35937-3-9-0-7-2" class="cls-20" points="175.4 385.96 95.58 87.1 373.05 12.94 452.93 311.75 175.4 385.96"/>
      <polygon id="polygon35948-65-4-8-5-2" class="cls-19" points="-12.46 190.14 331.91 134.55 356.32 285.52 11.94 341.1 -12.46 190.14"/>
      <polygon id="polygon35957-1-3-2-4-2" class="cls-17" points="-25.38 -11.88 315.4 27.01 296.95 305.44 -43.82 266.47 -25.38 -11.88"/>
      <rect id="rect35968-1-9-3-10-2" class="cls-14" x="-31.97" y="156.25" width="367.25" height="189.22"/>
    </g>
  </g>
  <g class="cls-11">
    <g class="cls-9">
      <rect id="rect35803-7-5-9-32-2" class="cls-5" x="37.86" y="-7.89" width="279.62" height="355.67"/>
      <rect id="rect35824-0-2-8-75-2" class="cls-4" x="37.86" y="15.33" width="279.62" height="332.44"/>
      <rect id="rect35826-6-7-8-5-2" class="cls-5" x="-48.34" y="-7.66" width="365.51" height="365.51"/>
      <rect id="rect35843-7-8-8-7-2" class="cls-15" x="-15.32" y="-34.78" width="460.61" height="358.44"/>
      <path id="path35860-8-7-6-4-2-2" data-name="path35860-8-7-6-4-2" class="cls-3" d="M568.68,421H-214.05V-284.98H568.68V421Z"/>
      <polygon id="polygon35877-4-4-8-9-2" class="cls-24" points="346.01 -71.15 406.2 277.38 44.81 339.82 -15.38 -8.78 346.01 -71.15"/>
      <polygon id="polygon35886-19-00-4-03-3" class="cls-22" points="32.73 -19.86 373.54 9.79 347.48 323.66 8.38 221.91 32.73 -19.86"/>
      <polygon id="polygon35886-19-00-4-03-4" class="cls-26" points="-68.14 256.57 -4.59 -12.49 208.97 30.3 145.36 299.31 -68.14 256.57"/>
    </g>
  </g>
  <g class="cls-8">
    <rect id="rect62862-8" class="cls-25" x="109.24" y="78.42" width="197.49" height="197.49" transform="translate(-64.36 198.96) rotate(-45)"/>
    <rect id="rect62862" class="cls-13" x="109.24" y="78.42" width="197.49" height="197.49" transform="translate(-64.36 198.96) rotate(-45)"/>
    <rect id="rect62862-7-2" data-name="rect62862-7" class="cls-23" x="109.24" y="78.42" width="197.49" height="197.49" transform="translate(-64.36 198.96) rotate(-45)"/>
  </g>
  <g>
    <path class="cls-6" d="M238.75,250.84h-61.53c-4.14,0-7.51-3.36-7.51-7.5V110.99c0-4.14,3.37-7.5,7.51-7.5h61.53c4.14,0,7.51,3.37,7.51,7.5V243.35c0,4.14-3.37,7.5-7.51,7.5Zm-61.53-140.29l-.43,132.79,61.96,.43c.24,0,.43-.19,.43-.43V110.99l-61.96-.43Z"/>
    <path class="cls-6" d="M207.99,153.18c-9.99,0-18.12-8.13-18.12-18.12s8.13-18.13,18.12-18.13,18.13,8.13,18.13,18.13-8.13,18.12-18.13,18.12Zm0-29.18c-6.1,0-11.05,4.96-11.05,11.06s4.96,11.05,11.05,11.05,11.06-4.96,11.06-11.05-4.96-11.06-11.06-11.06Z"/>
    <path class="cls-6" d="M207.99,195.29c-9.99,0-18.12-8.13-18.12-18.12s8.13-18.13,18.12-18.13,18.13,8.13,18.13,18.13-8.13,18.12-18.13,18.12Zm0-29.18c-6.1,0-11.05,4.96-11.05,11.06s4.96,11.05,11.05,11.05,11.06-4.96,11.06-11.05-4.96-11.06-11.06-11.06Z"/>
    <g class="cls-12">
      <path class="cls-6" d="M207.99,237.4c-9.99,0-18.12-8.13-18.12-18.12s8.13-18.13,18.12-18.13,18.13,8.13,18.13,18.13-8.13,18.12-18.13,18.12Zm0-29.18c-6.1,0-11.05,4.96-11.05,11.06s4.96,11.05,11.05,11.05,11.06-4.96,11.06-11.05-4.96-11.06-11.06-11.06Z"/>
    </g>
  </g>
</svg>