<?xml version="1.0" encoding="UTF-8"?>
<svg id="Ebene_1" data-name="Ebene 1" xmlns="http://www.w3.org/2000/svg" viewBox="0 0 24 24">
  <defs>
    <style>
      .cls-1 {
        opacity: .5;
        stroke-linecap: round;
        stroke-linejoin: round;
      }

      .cls-1, .cls-2 {
        stroke: #000;
      }

      .cls-2 {
        fill: none;
      }
    </style>
  </defs>
  <path class="cls-2" d="M19.79,21.13H4.21c-1.23,0-2.23-1-2.23-2.23V8.88c0-1.23,1-2.23,2.23-2.23h15.59c1.23,0,2.23,1,2.23,2.23v10.02c0,1.23-1,2.23-2.23,2.23Z"/>
  <path class="cls-1" d="M17.01,14.45c-.31,0-.56-.25-.56-.56s.25-.56,.56-.56,.56,.25,.56,.56-.25,.56-.56,.56Z"/>
  <path class="cls-2" d="M18.68,6.65v-1.56c0-1.46-1.39-2.53-2.8-2.15L3.63,6.21c-.97,.26-1.65,1.14-1.65,2.15v.52"/>
</svg>