<?xml version="1.0" encoding="UTF-8"?>
<svg id="Ebene_1" data-name="Ebene 1" xmlns="http://www.w3.org/2000/svg" viewBox="0 0 24 24">
  <defs>
    <style>
      .cls-1, .cls-2 {
        fill: none;
        stroke: #000;
        stroke-linecap: round;
        stroke-linejoin: round;
      }

      .cls-2 {
        opacity: .5;
      }
    </style>
  </defs>
  <path class="cls-1" d="M17.43,17.92c2.5,3.5,6.45,.92,5.5-2.5-1.42-5.13-2.2-7.98-2.6-9.49-.24-.89-1.04-1.51-1.96-1.51H5.49c-.92,0-1.72,.62-1.94,1.51-.84,3.35-1.59,6.29-2.48,9.49-.95,3.42,3,6,5.5,2.5"/>
  <path class="cls-2" d="M15.93,4.42v2c0,1.1-.9,2-2,2h-4c-1.1,0-2-.9-2-2v-2"/>
  <path class="cls-2" d="M7.93,16.42c1.1,0,2-.9,2-2s-.9-2-2-2-2,.9-2,2,.9,2,2,2Z"/>
  <path class="cls-2" d="M15.93,16.42c1.1,0,2-.9,2-2s-.9-2-2-2-2,.9-2,2,.9,2,2,2Z"/>
</svg>