<?xml version="1.0" encoding="UTF-8"?>
<svg id="Ebene_1" data-name="Ebene 1" xmlns="http://www.w3.org/2000/svg" xmlns:xlink="http://www.w3.org/1999/xlink" viewBox="0 0 354.33 354.33">
  <defs>
    <style>
      .cls-1 {
        fill: none;
      }

      .cls-2 {
        clip-path: url(#clippath);
      }

      .cls-3 {
        fill: url(#Unbenannter_Verlauf_29-2);
      }

      .cls-4 {
        fill: url(#Unbenannter_Verlauf_22-4);
      }

      .cls-5 {
        fill: url(#Unbenannter_Verlauf_22-2);
      }

      .cls-6 {
        fill: url(#Unbenannter_Verlauf_22-3);
      }

      .cls-7 {
        fill: url(#Unbenannter_Verlauf_22-5);
      }

      .cls-8 {
        fill: url(#Unbenannter_Verlauf_24-2);
      }

      .cls-9 {
        fill: #002a60;
      }

      .cls-10 {
        fill: #fff;
      }

      .cls-11 {
        clip-path: url(#clippath-1);
      }

      .cls-12 {
        clip-path: url(#clippath-4);
      }

      .cls-13 {
        clip-path: url(#clippath-3);
      }

      .cls-14 {
        clip-path: url(#clippath-2);
      }

      .cls-15 {
        clip-path: url(#clippath-7);
      }

      .cls-16 {
        clip-path: url(#clippath-6);
      }

      .cls-17 {
        clip-path: url(#clippath-5);
      }

      .cls-18 {
        opacity: .23;
      }

      .cls-19 {
        opacity: .43;
      }

      .cls-20, .cls-21 {
        opacity: .5;
      }

      .cls-22 {
        fill: url(#Unbenannter_Verlauf_25);
      }

      .cls-23 {
        fill: url(#Unbenannter_Verlauf_23);
      }

      .cls-24 {
        fill: url(#Unbenannter_Verlauf_24);
      }

      .cls-25 {
        fill: url(#Unbenannter_Verlauf_26);
      }

      .cls-26 {
        fill: url(#Unbenannter_Verlauf_29);
      }

      .cls-27 {
        fill: url(#Unbenannter_Verlauf_27);
      }

      .cls-28 {
        fill: url(#Unbenannter_Verlauf_28);
      }

      .cls-29 {
        fill: url(#Unbenannter_Verlauf_22);
      }

      .cls-30 {
        fill: url(#Unbenannter_Verlauf_20);
      }

      .cls-31 {
        fill: url(#Unbenannter_Verlauf_7);
      }

      .cls-32 {
        fill: url(#Unbenannter_Verlauf_21);
        opacity: .29;
      }

      .cls-32, .cls-33, .cls-21, .cls-34 {
        isolation: isolate;
      }

      .cls-33 {
        fill: url(#Unbenannter_Verlauf_18);
        opacity: .9;
      }

      .cls-21 {
        fill: url(#Unbenannter_Verlauf_17);
      }

      .cls-34 {
        fill: url(#Unbenannter_Verlauf_19);
        opacity: .61;
      }
    </style>
    <clipPath id="clippath">
      <rect class="cls-1" x="78.41" y="540.11" width="197.51" height="197.51" transform="translate(-399.86 312.4) rotate(-45)"/>
    </clipPath>
    <radialGradient id="Unbenannter_Verlauf_22" data-name="Unbenannter Verlauf 22" cx="3621.71" cy="-3802.14" fx="3621.71" fy="-3802.14" r="182.49" gradientTransform="translate(-7458.03 -5406.19) scale(2.11 -1.56)" gradientUnits="userSpaceOnUse">
      <stop offset="0" stop-color="#002a60" stop-opacity="0"/>
      <stop offset=".1" stop-color="#082a5f" stop-opacity=".1"/>
      <stop offset=".27" stop-color="#1e295d" stop-opacity=".27"/>
      <stop offset=".47" stop-color="#43285a" stop-opacity=".47"/>
      <stop offset=".7" stop-color="#752655" stop-opacity=".7"/>
      <stop offset=".95" stop-color="#b5244f" stop-opacity=".95"/>
      <stop offset="1" stop-color="#c2244e"/>
    </radialGradient>
    <clipPath id="clippath-1">
      <rect class="cls-1" x="-391.06" y="78.41" width="197.51" height="197.51" transform="translate(-210.89 -154.8) rotate(-45)"/>
    </clipPath>
    <radialGradient id="Unbenannter_Verlauf_22-2" data-name="Unbenannter Verlauf 22" cx="3399.21" cy="-3506.17" fx="3399.21" fy="-3506.17" r="182.49" xlink:href="#Unbenannter_Verlauf_22"/>
    <clipPath id="clippath-2">
      <rect class="cls-1" x="47.6" y="78.42" width="197.49" height="197.49" transform="translate(-82.41 155.37) rotate(-45)"/>
    </clipPath>
    <linearGradient id="Unbenannter_Verlauf_24" data-name="Unbenannter Verlauf 24" x1="89.53" y1="-818.86" x2="89.53" y2="-1151.26" gradientTransform="translate(57.31 1166.62)" gradientUnits="userSpaceOnUse">
      <stop offset="0" stop-color="#c2244e"/>
      <stop offset=".03" stop-color="#b42855"/>
      <stop offset=".15" stop-color="#8a346a"/>
      <stop offset=".25" stop-color="#693d7a"/>
      <stop offset=".36" stop-color="#524486"/>
      <stop offset=".45" stop-color="#44488d"/>
      <stop offset=".54" stop-color="#3f498f"/>
      <stop offset=".88" stop-color="#2c8ae1"/>
      <stop offset="1" stop-color="#25a1ff"/>
    </linearGradient>
    <linearGradient id="Unbenannter_Verlauf_29" data-name="Unbenannter Verlauf 29" x1="-190.15" y1="-989.02" x2="89.44" y2="-989.02" gradientTransform="translate(57.31 1166.62)" gradientUnits="userSpaceOnUse">
      <stop offset=".22" stop-color="#0051b4"/>
      <stop offset="1" stop-color="#37529c" stop-opacity="0"/>
    </linearGradient>
    <radialGradient id="Unbenannter_Verlauf_28" data-name="Unbenannter Verlauf 28" cx="6735.99" cy="-2277.91" fx="6735.99" fy="-2277.91" r="68.82" gradientTransform="translate(8673.12 13360.88) rotate(-105.23) scale(2.23 2.04) skewX(.89)" gradientUnits="userSpaceOnUse">
      <stop offset=".1" stop-color="#002a60"/>
      <stop offset=".32" stop-color="#042d65" stop-opacity=".76"/>
      <stop offset=".57" stop-color="#113672" stop-opacity=".48"/>
      <stop offset=".83" stop-color="#254589" stop-opacity=".19"/>
      <stop offset="1" stop-color="#37529c" stop-opacity="0"/>
    </radialGradient>
    <linearGradient id="Unbenannter_Verlauf_27" data-name="Unbenannter Verlauf 27" x1="1409.48" y1="-1600.64" x2="1409.48" y2="-1753.57" gradientTransform="translate(-1300.13 2174.27) rotate(-9.17) scale(1.25 1)" gradientUnits="userSpaceOnUse">
      <stop offset="0" stop-color="#c2244e"/>
      <stop offset=".54" stop-color="#703f7c" stop-opacity=".61"/>
      <stop offset=".54" stop-color="#6e407d" stop-opacity=".6"/>
      <stop offset=".88" stop-color="#37529c" stop-opacity="0"/>
    </linearGradient>
    <linearGradient id="Unbenannter_Verlauf_26" data-name="Unbenannter Verlauf 26" x1="1026.85" y1="-329.27" x2="1014.29" y2="-188.15" gradientTransform="translate(-1157.52 612.33) rotate(4.97) scale(1.22 2.01)" gradientUnits="userSpaceOnUse">
      <stop offset=".05" stop-color="#25a1ff"/>
      <stop offset=".47" stop-color="#108fff" stop-opacity=".74"/>
      <stop offset="1" stop-color="#0037d3" stop-opacity="0"/>
    </linearGradient>
    <linearGradient id="Unbenannter_Verlauf_25" data-name="Unbenannter Verlauf 25" x1="94.34" y1="-821.16" x2="94.34" y2="-1010.38" gradientTransform="translate(57.31 1166.62)" gradientUnits="userSpaceOnUse">
      <stop offset=".15" stop-color="#c2244e"/>
      <stop offset=".61" stop-color="#703f7c" stop-opacity=".61"/>
      <stop offset=".88" stop-color="#37529c" stop-opacity="0"/>
    </linearGradient>
    <clipPath id="clippath-3">
      <rect class="cls-1" x="78.41" y="78.41" width="197.51" height="197.51" transform="translate(-73.38 177.17) rotate(-45)"/>
    </clipPath>
    <linearGradient id="Unbenannter_Verlauf_24-2" data-name="Unbenannter Verlauf 24" x1="120.35" y1="-2717.77" x2="120.35" y2="-2385.33" gradientTransform="translate(57.31 -2370) scale(1 -1)" xlink:href="#Unbenannter_Verlauf_24"/>
    <linearGradient id="Unbenannter_Verlauf_23" data-name="Unbenannter Verlauf 23" x1="193.22" y1="-2427.08" x2="113.65" y2="-2622.64" gradientTransform="translate(57.31 -2370) scale(1 -1)" gradientUnits="userSpaceOnUse">
      <stop offset=".08" stop-color="#25a1ff"/>
      <stop offset=".23" stop-color="#1b81d5"/>
      <stop offset=".4" stop-color="#1162ab"/>
      <stop offset=".57" stop-color="#0a4a8a"/>
      <stop offset=".72" stop-color="#043873"/>
      <stop offset=".87" stop-color="#012e65"/>
      <stop offset="1" stop-color="#002a60"/>
    </linearGradient>
    <radialGradient id="Unbenannter_Verlauf_22-3" data-name="Unbenannter Verlauf 22" cy="-3506.17" fy="-3506.17" r="182.49" xlink:href="#Unbenannter_Verlauf_22"/>
    <linearGradient id="Unbenannter_Verlauf_21" data-name="Unbenannter Verlauf 21" x1="3283.6" y1="-10583.59" x2="3637.35" y2="-10583.59" gradientTransform="translate(10035.56 -5077.1) rotate(80.2) scale(1 -1)" gradientUnits="userSpaceOnUse">
      <stop offset="0" stop-color="#002a60" stop-opacity="0"/>
      <stop offset=".1" stop-color="#082a5f" stop-opacity=".1"/>
      <stop offset=".27" stop-color="#1e295d" stop-opacity=".27"/>
      <stop offset=".47" stop-color="#43285a" stop-opacity=".47"/>
      <stop offset=".7" stop-color="#752655" stop-opacity=".7"/>
      <stop offset=".89" stop-color="#b5244f" stop-opacity=".95"/>
      <stop offset="1" stop-color="#c2244e"/>
    </linearGradient>
    <linearGradient id="Unbenannter_Verlauf_20" data-name="Unbenannter Verlauf 20" x1="1341.66" y1="-3090.47" x2="1329.35" y2="-3188.37" gradientTransform="translate(-881.25 -6307.12) rotate(4.97) scale(1.22 -2.01)" gradientUnits="userSpaceOnUse">
      <stop offset=".18" stop-color="#25a1ff"/>
      <stop offset=".46" stop-color="#1a7cd5" stop-opacity=".74"/>
      <stop offset="1" stop-color="#37529c" stop-opacity="0"/>
    </linearGradient>
    <linearGradient id="Unbenannter_Verlauf_19" data-name="Unbenannter Verlauf 19" x1="1536.86" y1="-1577.74" x2="1545.8" y2="-1664.42" gradientTransform="translate(-3517.87 1227.02) rotate(-76.71) scale(1.22 -2.01)" gradientUnits="userSpaceOnUse">
      <stop offset=".05" stop-color="#25a1ff"/>
      <stop offset=".28" stop-color="#1a7cd5" stop-opacity=".74"/>
      <stop offset="1" stop-color="#37529c" stop-opacity="0"/>
    </linearGradient>
    <clipPath id="clippath-4">
      <rect id="rect62862-7" class="cls-1" x="109.24" y="78.42" width="197.49" height="197.49" transform="translate(-64.36 198.96) rotate(-45)"/>
    </clipPath>
    <linearGradient id="Unbenannter_Verlauf_18" data-name="Unbenannter Verlauf 18" x1="-3143.99" y1="-3906.85" x2="-2946.5" y2="-3906.85" gradientTransform="translate(3253.23 -3729.68) scale(1 -1)" gradientUnits="userSpaceOnUse">
      <stop offset="0" stop-color="#073d84"/>
      <stop offset=".84" stop-color="#003c8b" stop-opacity=".64"/>
      <stop offset="1" stop-color="#004eb5" stop-opacity=".6"/>
    </linearGradient>
    <radialGradient id="Unbenannter_Verlauf_17" data-name="Unbenannter Verlauf 17" cx="-2053.48" cy="-2140.51" fx="-2053.48" fy="-2140.51" r="98.74" gradientTransform="translate(968.83 -9353.26) rotate(-4.61) scale(.69 -4.38)" gradientUnits="userSpaceOnUse">
      <stop offset="0" stop-color="#2295ff" stop-opacity=".65"/>
      <stop offset="1" stop-color="#2295ff" stop-opacity="0"/>
    </radialGradient>
    <radialGradient id="Unbenannter_Verlauf_7" data-name="Unbenannter Verlauf 7" cx="-575.75" cy="-2056.57" fx="-575.75" fy="-2056.57" r="98.74" gradientTransform="translate(9208.26 -10210.98) rotate(16.19) scale(9.86 -6.01)" gradientUnits="userSpaceOnUse">
      <stop offset="0" stop-color="#b34d4d" stop-opacity="0"/>
      <stop offset="1" stop-color="red"/>
    </radialGradient>
    <clipPath id="clippath-5">
      <rect class="cls-1" x="555.46" y="540.11" width="197.51" height="197.51" transform="translate(-260.14 649.72) rotate(-45)"/>
    </clipPath>
    <radialGradient id="Unbenannter_Verlauf_22-4" data-name="Unbenannter Verlauf 22" cx="3847.8" fx="3847.8" xlink:href="#Unbenannter_Verlauf_22"/>
    <clipPath id="clippath-6">
      <rect class="cls-1" x="524.65" y="78.42" width="197.49" height="197.49" transform="translate(57.31 492.69) rotate(-45)"/>
    </clipPath>
    <linearGradient id="Unbenannter_Verlauf_29-2" data-name="Unbenannter Verlauf 29" x1="286.9" x2="566.49" xlink:href="#Unbenannter_Verlauf_29"/>
    <clipPath id="clippath-7">
      <rect class="cls-1" x="555.46" y="78.41" width="197.51" height="197.51" transform="translate(66.34 514.49) rotate(-45)"/>
    </clipPath>
    <radialGradient id="Unbenannter_Verlauf_22-5" data-name="Unbenannter Verlauf 22" cx="3847.8" cy="-3506.17" fx="3847.8" fy="-3506.17" r="182.49" xlink:href="#Unbenannter_Verlauf_22"/>
  </defs>
  <g class="cls-19">
    <g class="cls-2">
      <path id="path35860-8-7-6-4-2" class="cls-29" d="M568.68,882.7H-214.05V176.73H568.68V882.7Z"/>
    </g>
  </g>
  <g class="cls-19">
    <g class="cls-11">
      <path id="path35860-8-7-6-4-2-2" data-name="path35860-8-7-6-4-2" class="cls-5" d="M99.21,421H-683.52V-284.98H99.21V421Z"/>
    </g>
  </g>
  <g>
    <rect id="white_background_1" data-name="white background 1" class="cls-10" x="47.6" y="78.42" width="197.49" height="197.49" transform="translate(-82.41 155.37) rotate(-45)"/>
    <rect id="white_background_2" data-name="white background 2" class="cls-10" x="78.41" y="78.41" width="197.51" height="197.51" transform="translate(-73.38 177.17) rotate(-45)"/>
    <rect id="white_background_3" data-name="white background 3" class="cls-10" x="109.24" y="78.42" width="197.49" height="197.49" transform="translate(-64.36 198.96) rotate(-45)"/>
    <g class="cls-18">
      <g class="cls-14">
        <rect id="rect35896-3-4-6-6-2" class="cls-9" x="7.04" y="-7.87" width="279.59" height="355.63"/>
        <rect id="rect35917-90-7-5-4-2" class="cls-24" x="7.04" y="15.36" width="279.59" height="332.41"/>
        <rect id="rect35924-9-9-9-42-2" class="cls-26" x="-132.84" y="37.81" width="279.59" height="279.59"/>
        <polygon id="polygon35937-3-9-0-7-2" class="cls-28" points="175.4 385.96 95.58 87.1 373.05 12.94 452.93 311.75 175.4 385.96"/>
        <polygon id="polygon35948-65-4-8-5-2" class="cls-27" points="-12.46 190.14 331.91 134.55 356.32 285.52 11.94 341.1 -12.46 190.14"/>
        <polygon id="polygon35957-1-3-2-4-2" class="cls-25" points="-25.38 -11.88 315.4 27.01 296.95 305.44 -43.82 266.47 -25.38 -11.88"/>
        <rect id="rect35968-1-9-3-10-2" class="cls-22" x="-31.97" y="156.25" width="367.25" height="189.22"/>
      </g>
    </g>
    <g class="cls-19">
      <g class="cls-13">
        <rect id="rect35803-7-5-9-32-2" class="cls-9" x="37.86" y="-7.89" width="279.62" height="355.67"/>
        <rect id="rect35824-0-2-8-75-2" class="cls-8" x="37.86" y="15.33" width="279.62" height="332.44"/>
        <rect id="rect35826-6-7-8-5-2" class="cls-9" x="-48.34" y="-7.66" width="365.51" height="365.51"/>
        <rect id="rect35843-7-8-8-7-2" class="cls-23" x="-15.32" y="-34.78" width="460.61" height="358.44"/>
        <path id="path35860-8-7-6-4-2-3" data-name="path35860-8-7-6-4-2" class="cls-6" d="M568.68,421H-214.05V-284.98H568.68V421Z"/>
        <polygon id="polygon35877-4-4-8-9-2" class="cls-32" points="346.01 -71.15 406.2 277.38 44.81 339.82 -15.38 -8.78 346.01 -71.15"/>
        <polygon id="polygon35886-19-00-4-03-3" class="cls-30" points="32.73 -19.86 373.54 9.79 347.48 323.66 8.38 221.91 32.73 -19.86"/>
        <polygon id="polygon35886-19-00-4-03-4" class="cls-34" points="-68.14 256.57 -4.59 -12.49 208.97 30.3 145.36 299.31 -68.14 256.57"/>
      </g>
    </g>
    <g class="cls-12">
      <rect id="rect62862-8" class="cls-33" x="109.24" y="78.42" width="197.49" height="197.49" transform="translate(-64.36 198.96) rotate(-45)"/>
      <rect id="rect62862" class="cls-21" x="109.24" y="78.42" width="197.49" height="197.49" transform="translate(-64.36 198.96) rotate(-45)"/>
      <rect id="rect62862-7-2" data-name="rect62862-7" class="cls-31" x="109.24" y="78.42" width="197.49" height="197.49" transform="translate(-64.36 198.96) rotate(-45)"/>
    </g>
  </g>
  <g class="cls-19">
    <g class="cls-17">
      <path id="path35860-8-7-6-4-2-4" data-name="path35860-8-7-6-4-2" class="cls-4" d="M1045.72,882.7H262.99V176.73h782.73V882.7Z"/>
    </g>
  </g>
  <g>
    <path class="cls-10" d="M253.34,238.2c-1.78,0-3.21-1.44-3.21-3.21V123.19c0-.35-.29-.64-.65-.64h-73.24c-5.31,0-9.64,4.32-9.64,9.64v93.17c0,1.78-1.44,3.21-3.21,3.21s-3.21-1.44-3.21-3.21v-93.17c0-8.86,7.2-16.06,16.06-16.06h73.24c3.9,0,7.07,3.17,7.07,7.07v111.8c0,1.78-1.44,3.21-3.21,3.21Z"/>
    <g class="cls-20">
      <path class="cls-10" d="M227.63,148.25h-38.55c-1.78,0-3.21-1.44-3.21-3.21s1.44-3.21,3.21-3.21h38.55c1.78,0,3.21,1.44,3.21,3.21s-1.44,3.21-3.21,3.21Z"/>
    </g>
    <path class="cls-10" d="M253.34,199.65h-80.31c-1.78,0-3.21-1.44-3.21-3.21s1.44-3.21,3.21-3.21h80.31c1.78,0,3.21,1.44,3.21,3.21s-1.44,3.21-3.21,3.21Z"/>
    <path class="cls-10" d="M253.34,218.93h-80.31c-1.78,0-3.21-1.44-3.21-3.21s1.44-3.21,3.21-3.21h80.31c1.78,0,3.21,1.44,3.21,3.21s-1.44,3.21-3.21,3.21Z"/>
    <path class="cls-10" d="M253.34,238.2h-80.31c-1.78,0-3.21-1.44-3.21-3.21s1.44-3.21,3.21-3.21h80.31c1.78,0,3.21,1.44,3.21,3.21s-1.44,3.21-3.21,3.21Z"/>
    <path class="cls-10" d="M173.02,218.93c-7.69,0-12.85-5.16-12.85-12.85s5.16-12.85,12.85-12.85c1.78,0,3.21,1.44,3.21,3.21s-1.44,3.21-3.21,3.21c-5.8,0-6.43,4.49-6.43,6.43s.63,6.43,6.43,6.43c1.78,0,3.21,1.44,3.21,3.21s-1.44,3.21-3.21,3.21Z"/>
    <path class="cls-10" d="M173.02,238.2c-7.69,0-12.85-5.16-12.85-12.85s5.16-12.85,12.85-12.85c1.78,0,3.21,1.44,3.21,3.21s-1.44,3.21-3.21,3.21c-5.8,0-6.43,4.49-6.43,6.43s.63,6.43,6.43,6.43c1.78,0,3.21,1.44,3.21,3.21s-1.44,3.21-3.21,3.21Z"/>
  </g>
  <g>
    <g class="cls-18">
      <g class="cls-16">
        <rect id="rect35924-9-9-9-42-2-2" data-name="rect35924-9-9-9-42-2" class="cls-3" x="344.21" y="37.81" width="279.59" height="279.59"/>
      </g>
    </g>
    <g class="cls-19">
      <g class="cls-15">
        <path id="path35860-8-7-6-4-2-5" data-name="path35860-8-7-6-4-2" class="cls-7" d="M1045.72,421H262.99V-284.98h782.73V421Z"/>
      </g>
    </g>
  </g>
</svg>