<?xml version="1.0" encoding="utf-8"?>
<!-- Generator: Adobe Illustrator 26.3.1, SVG Export Plug-In . SVG Version: 6.00 Build 0)  -->
<svg version="1.1" id="Ebene_1" xmlns="http://www.w3.org/2000/svg" xmlns:xlink="http://www.w3.org/1999/xlink" x="0px" y="0px"
	 viewBox="0 0 403 403" style="enable-background:new 0 0 403 403;" xml:space="preserve">
<style type="text/css">
	.st0{opacity:0.83;}
	.st1{fill:#FFFFFF;}
	.st2{opacity:0.55;fill:url(#SVGID_1_);}
	.st3{opacity:0.6;fill:url(#SVGID_00000052782261156978085000000008285297252109990825_);}
	.st4{opacity:0.83;fill:url(#SVGID_00000025438686697270007780000004252930575865655172_);}
</style>
<g class="st0">
	<polygon id="white_background_1" class="st1" points="7.3,201.5 158.6,50.2 309.9,201.5 158.6,352.8 	"/>
	
		<rect id="white_background_2" x="57.9" y="79.3" transform="matrix(0.7071 -0.7071 0.7071 0.7071 -89.7337 186.3279)" class="st1" width="244.3" height="244.3"/>
	
		<rect id="white_background_3" x="64.2" y="64.2" transform="matrix(0.7071 -0.7071 0.7071 0.7071 -83.4557 201.48)" class="st1" width="274.6" height="274.6"/>
	<linearGradient id="SVGID_1_" gradientUnits="userSpaceOnUse" x1="158.6238" y1="352.8231" x2="158.6238" y2="50.1652">
		<stop  offset="1.860317e-02" style="stop-color:#000000"/>
		<stop  offset="0.8431" style="stop-color:#999999"/>
	</linearGradient>
	<polygon class="st2" points="7.3,201.5 158.6,50.2 309.9,201.5 158.6,352.8 	"/>
	
		<linearGradient id="SVGID_00000006688593697894359060000015036170942299765677_" gradientUnits="userSpaceOnUse" x1="180.0508" y1="374.2262" x2="180.0508" y2="28.738">
		<stop  offset="1.860317e-02" style="stop-color:#000000"/>
		<stop  offset="0.8431" style="stop-color:#999999"/>
	</linearGradient>
	<polygon style="opacity:0.6;fill:url(#SVGID_00000006688593697894359060000015036170942299765677_);" points="7.3,201.5 180,28.7 
		352.8,201.5 180.1,374.2 	"/>
	
		<linearGradient id="SVGID_00000047781309682156942640000015193248104014893966_" gradientUnits="userSpaceOnUse" x1="201.48" y1="395.6532" x2="201.48" y2="7.3068">
		<stop  offset="1.860317e-02" style="stop-color:#000000"/>
		<stop  offset="0.8431" style="stop-color:#999999"/>
	</linearGradient>
	<polygon style="opacity:0.83;fill:url(#SVGID_00000047781309682156942640000015193248104014893966_);" points="7.3,201.5 
		201.5,7.3 395.7,201.5 201.5,395.7 	"/>
</g>
</svg>
