<?xml version="1.0" encoding="UTF-8"?>
<svg id="Ebene_1" data-name="Ebene 1" xmlns="http://www.w3.org/2000/svg" viewBox="0 0 24 24">
  <defs>
    <style>
      .cls-1 {
        fill: none;
        stroke: #000;
        stroke-linecap: round;
        stroke-linejoin: round;
      }
    </style>
  </defs>
  <path class="cls-1" d="M20.02,12v9.42c0,.33-.27,.6-.6,.6H4.58c-.33,0-.6-.27-.6-.6V12"/>
  <path class="cls-1" d="M21.42,6.99H2.58c-.33,0-.6,.27-.6,.6v3.81c0,.33,.27,.6,.6,.6H21.42c.33,0,.6-.27,.6-.6v-3.81c0-.33-.27-.6-.6-.6Z"/>
  <path class="cls-1" d="M12,22.02V6.99"/>
  <path class="cls-1" d="M12,6.99H7.49c-.66,0-1.3-.26-1.77-.73-.47-.47-.73-1.11-.73-1.77s.26-1.3,.73-1.77c.47-.47,1.11-.73,1.77-.73,3.51,0,4.51,5.01,4.51,5.01Z"/>
  <path class="cls-1" d="M12,6.99h4.51c.66,0,1.3-.26,1.77-.73,.47-.47,.73-1.11,.73-1.77s-.26-1.3-.73-1.77c-.47-.47-1.11-.73-1.77-.73-3.51,0-4.51,5.01-4.51,5.01Z"/>
</svg>