<?xml version="1.0" encoding="UTF-8"?>
<svg id="Ebene_1" data-name="Ebene 1" xmlns="http://www.w3.org/2000/svg" xmlns:xlink="http://www.w3.org/1999/xlink" viewBox="0 0 354.33 354.33">
  <defs>
    <style>
      .cls-1 {
        fill: none;
      }

      .cls-2 {
        clip-path: url(#clippath);
      }

      .cls-3 {
        fill: url(#Unbenannter_Verlauf_29-2);
      }

      .cls-4 {
        fill: url(#Unbenannter_Verlauf_22-4);
      }

      .cls-5 {
        fill: url(#Unbenannter_Verlauf_22-2);
      }

      .cls-6 {
        fill: url(#Unbenannter_Verlauf_22-3);
      }

      .cls-7 {
        fill: url(#Unbenannter_Verlauf_24-2);
      }

      .cls-8 {
        fill: #002a60;
      }

      .cls-9 {
        fill: #fff;
      }

      .cls-10 {
        clip-path: url(#clippath-1);
      }

      .cls-11 {
        clip-path: url(#clippath-4);
      }

      .cls-12 {
        clip-path: url(#clippath-3);
      }

      .cls-13 {
        clip-path: url(#clippath-2);
      }

      .cls-14 {
        clip-path: url(#clippath-6);
      }

      .cls-15 {
        clip-path: url(#clippath-5);
      }

      .cls-16 {
        opacity: .23;
      }

      .cls-17 {
        opacity: .43;
      }

      .cls-18, .cls-19 {
        opacity: .5;
      }

      .cls-20 {
        fill: url(#Unbenannter_Verlauf_25);
      }

      .cls-21 {
        fill: url(#Unbenannter_Verlauf_23);
      }

      .cls-22 {
        fill: url(#Unbenannter_Verlauf_24);
      }

      .cls-23 {
        fill: url(#Unbenannter_Verlauf_26);
      }

      .cls-24 {
        fill: url(#Unbenannter_Verlauf_29);
      }

      .cls-25 {
        fill: url(#Unbenannter_Verlauf_27);
      }

      .cls-26 {
        fill: url(#Unbenannter_Verlauf_28);
      }

      .cls-27 {
        fill: url(#Unbenannter_Verlauf_22);
      }

      .cls-28 {
        fill: url(#Unbenannter_Verlauf_20);
      }

      .cls-29 {
        fill: url(#Unbenannter_Verlauf_7);
      }

      .cls-30 {
        fill: url(#Unbenannter_Verlauf_21);
        opacity: .29;
      }

      .cls-30, .cls-31, .cls-19, .cls-32 {
        isolation: isolate;
      }

      .cls-31 {
        fill: url(#Unbenannter_Verlauf_18);
        opacity: .9;
      }

      .cls-19 {
        fill: url(#Unbenannter_Verlauf_17);
      }

      .cls-32 {
        fill: url(#Unbenannter_Verlauf_19);
        opacity: .61;
      }
    </style>
    <clipPath id="clippath">
      <rect class="cls-1" x="517.06" y="78.42" width="197.49" height="197.49" transform="translate(55.09 487.33) rotate(-45)"/>
    </clipPath>
    <linearGradient id="Unbenannter_Verlauf_29" data-name="Unbenannter Verlauf 29" x1="279.32" y1="-989.02" x2="558.91" y2="-989.02" gradientTransform="translate(57.31 1166.62)" gradientUnits="userSpaceOnUse">
      <stop offset=".22" stop-color="#0051b4"/>
      <stop offset="1" stop-color="#37529c" stop-opacity="0"/>
    </linearGradient>
    <clipPath id="clippath-1">
      <rect class="cls-1" x="547.88" y="78.41" width="197.51" height="197.51" transform="translate(64.12 509.13) rotate(-45)"/>
    </clipPath>
    <radialGradient id="Unbenannter_Verlauf_22" data-name="Unbenannter Verlauf 22" cx="4091.17" cy="-2680.41" fx="4091.17" fy="-2680.41" r="182.49" gradientTransform="translate(-7979.14 -4117.99) scale(2.11 -1.56)" gradientUnits="userSpaceOnUse">
      <stop offset="0" stop-color="#002a60" stop-opacity="0"/>
      <stop offset=".1" stop-color="#082a5f" stop-opacity=".1"/>
      <stop offset=".27" stop-color="#1e295d" stop-opacity=".27"/>
      <stop offset=".47" stop-color="#43285a" stop-opacity=".47"/>
      <stop offset=".7" stop-color="#752655" stop-opacity=".7"/>
      <stop offset=".95" stop-color="#b5244f" stop-opacity=".95"/>
      <stop offset="1" stop-color="#c2244e"/>
    </radialGradient>
    <clipPath id="clippath-2">
      <rect class="cls-1" x="78.41" y="581.61" width="197.51" height="197.51" transform="translate(-429.2 324.55) rotate(-45)"/>
    </clipPath>
    <radialGradient id="Unbenannter_Verlauf_22-2" data-name="Unbenannter Verlauf 22" cx="3868.68" cy="-3002.97" fx="3868.68" fy="-3002.97" r="182.49" xlink:href="#Unbenannter_Verlauf_22"/>
    <clipPath id="clippath-3">
      <rect class="cls-1" x="547.88" y="581.61" width="197.51" height="197.51" transform="translate(-291.7 656.51) rotate(-45)"/>
    </clipPath>
    <radialGradient id="Unbenannter_Verlauf_22-3" data-name="Unbenannter Verlauf 22" cy="-3002.97" fy="-3002.97" xlink:href="#Unbenannter_Verlauf_22"/>
    <clipPath id="clippath-4">
      <rect class="cls-1" x="47.6" y="78.42" width="197.49" height="197.49" transform="translate(-82.41 155.37) rotate(-45)"/>
    </clipPath>
    <linearGradient id="Unbenannter_Verlauf_24" data-name="Unbenannter Verlauf 24" x1="89.53" y1="-818.86" x2="89.53" y2="-1151.26" gradientTransform="translate(57.31 1166.62)" gradientUnits="userSpaceOnUse">
      <stop offset="0" stop-color="#c2244e"/>
      <stop offset=".03" stop-color="#b42855"/>
      <stop offset=".15" stop-color="#8a346a"/>
      <stop offset=".25" stop-color="#693d7a"/>
      <stop offset=".36" stop-color="#524486"/>
      <stop offset=".45" stop-color="#44488d"/>
      <stop offset=".54" stop-color="#3f498f"/>
      <stop offset=".88" stop-color="#2c8ae1"/>
      <stop offset="1" stop-color="#25a1ff"/>
    </linearGradient>
    <linearGradient id="Unbenannter_Verlauf_29-2" data-name="Unbenannter Verlauf 29" x1="-190.15" x2="89.44" xlink:href="#Unbenannter_Verlauf_29"/>
    <radialGradient id="Unbenannter_Verlauf_28" data-name="Unbenannter Verlauf 28" cx="7480.93" cy="-1931.95" fx="7480.93" fy="-1931.95" r="68.82" gradientTransform="translate(8431.71 15160.71) rotate(-105.23) scale(2.23 2.04) skewX(.89)" gradientUnits="userSpaceOnUse">
      <stop offset=".1" stop-color="#002a60"/>
      <stop offset=".32" stop-color="#042d65" stop-opacity=".76"/>
      <stop offset=".57" stop-color="#113672" stop-opacity=".48"/>
      <stop offset=".83" stop-color="#254589" stop-opacity=".19"/>
      <stop offset="1" stop-color="#37529c" stop-opacity="0"/>
    </radialGradient>
    <linearGradient id="Unbenannter_Verlauf_27" data-name="Unbenannter Verlauf 27" x1="1572.32" y1="-1669.02" x2="1572.32" y2="-1821.96" gradientTransform="translate(-1490.19 2274.23) rotate(-9.17) scale(1.25 1)" gradientUnits="userSpaceOnUse">
      <stop offset="0" stop-color="#c2244e"/>
      <stop offset=".54" stop-color="#703f7c" stop-opacity=".61"/>
      <stop offset=".54" stop-color="#6e407d" stop-opacity=".6"/>
      <stop offset=".88" stop-color="#37529c" stop-opacity="0"/>
    </linearGradient>
    <linearGradient id="Unbenannter_Verlauf_26" data-name="Unbenannter Verlauf 26" x1="1077.22" y1="-55.24" x2="1064.66" y2="85.88" gradientTransform="translate(-1171.03 58.28) rotate(4.97) scale(1.22 2.01)" gradientUnits="userSpaceOnUse">
      <stop offset=".05" stop-color="#25a1ff"/>
      <stop offset=".47" stop-color="#108fff" stop-opacity=".74"/>
      <stop offset="1" stop-color="#0037d3" stop-opacity="0"/>
    </linearGradient>
    <linearGradient id="Unbenannter_Verlauf_25" data-name="Unbenannter Verlauf 25" x1="94.34" y1="-821.16" x2="94.34" y2="-1010.38" gradientTransform="translate(57.31 1166.62)" gradientUnits="userSpaceOnUse">
      <stop offset=".15" stop-color="#c2244e"/>
      <stop offset=".61" stop-color="#703f7c" stop-opacity=".61"/>
      <stop offset=".88" stop-color="#37529c" stop-opacity="0"/>
    </linearGradient>
    <clipPath id="clippath-5">
      <rect class="cls-1" x="78.41" y="78.41" width="197.51" height="197.51" transform="translate(-73.38 177.17) rotate(-45)"/>
    </clipPath>
    <linearGradient id="Unbenannter_Verlauf_24-2" data-name="Unbenannter Verlauf 24" x1="120.35" y1="-1711.37" x2="120.35" y2="-1378.93" gradientTransform="translate(57.31 -1363.59) scale(1 -1)" xlink:href="#Unbenannter_Verlauf_24"/>
    <linearGradient id="Unbenannter_Verlauf_23" data-name="Unbenannter Verlauf 23" x1="193.22" y1="-1420.67" x2="113.65" y2="-1616.23" gradientTransform="translate(57.31 -1363.59) scale(1 -1)" gradientUnits="userSpaceOnUse">
      <stop offset=".08" stop-color="#25a1ff"/>
      <stop offset=".23" stop-color="#1b81d5"/>
      <stop offset=".4" stop-color="#1162ab"/>
      <stop offset=".57" stop-color="#0a4a8a"/>
      <stop offset=".72" stop-color="#043873"/>
      <stop offset=".87" stop-color="#012e65"/>
      <stop offset="1" stop-color="#002a60"/>
    </linearGradient>
    <radialGradient id="Unbenannter_Verlauf_22-4" data-name="Unbenannter Verlauf 22" cx="3868.68" fx="3868.68" r="182.49" xlink:href="#Unbenannter_Verlauf_22"/>
    <linearGradient id="Unbenannter_Verlauf_21" data-name="Unbenannter Verlauf 21" x1="3177.3" y1="-10457.36" x2="3531.05" y2="-10457.36" gradientTransform="translate(9929.26 -4950.86) rotate(80.2) scale(1 -1)" gradientUnits="userSpaceOnUse">
      <stop offset="0" stop-color="#002a60" stop-opacity="0"/>
      <stop offset=".1" stop-color="#082a5f" stop-opacity=".1"/>
      <stop offset=".27" stop-color="#1e295d" stop-opacity=".27"/>
      <stop offset=".47" stop-color="#43285a" stop-opacity=".47"/>
      <stop offset=".7" stop-color="#752655" stop-opacity=".7"/>
      <stop offset=".89" stop-color="#b5244f" stop-opacity=".95"/>
      <stop offset="1" stop-color="#c2244e"/>
    </linearGradient>
    <linearGradient id="Unbenannter_Verlauf_20" data-name="Unbenannter Verlauf 20" x1="1392.03" y1="-2358.1" x2="1379.72" y2="-2455.99" gradientTransform="translate(-1070.01 -4845.9) rotate(4.97) scale(1.22 -2.01)" gradientUnits="userSpaceOnUse">
      <stop offset=".18" stop-color="#25a1ff"/>
      <stop offset=".46" stop-color="#1a7cd5" stop-opacity=".74"/>
      <stop offset="1" stop-color="#37529c" stop-opacity="0"/>
    </linearGradient>
    <linearGradient id="Unbenannter_Verlauf_19" data-name="Unbenannter Verlauf 19" x1="2319.28" y1="-789.67" x2="2328.22" y2="-876.35" gradientTransform="translate(-2195.71 2520.15) rotate(-76.71) scale(1.22 -2.01)" gradientUnits="userSpaceOnUse">
      <stop offset=".05" stop-color="#25a1ff"/>
      <stop offset=".28" stop-color="#1a7cd5" stop-opacity=".74"/>
      <stop offset="1" stop-color="#37529c" stop-opacity="0"/>
    </linearGradient>
    <clipPath id="clippath-6">
      <rect id="rect62862-7" class="cls-1" x="109.24" y="78.42" width="197.49" height="197.49" transform="translate(-64.36 198.96) rotate(-45)"/>
    </clipPath>
    <linearGradient id="Unbenannter_Verlauf_18" data-name="Unbenannter Verlauf 18" x1="-2650.67" y1="-2715.87" x2="-2453.18" y2="-2715.87" gradientTransform="translate(2759.91 -2538.7) scale(1 -1)" gradientUnits="userSpaceOnUse">
      <stop offset="0" stop-color="#073d84"/>
      <stop offset=".84" stop-color="#003c8b" stop-opacity=".64"/>
      <stop offset="1" stop-color="#004eb5" stop-opacity=".6"/>
    </linearGradient>
    <radialGradient id="Unbenannter_Verlauf_17" data-name="Unbenannter Verlauf 17" cx="-1469.86" cy="-1481.13" fx="-1469.86" fy="-1481.13" r="98.74" gradientTransform="translate(797.89 -6443.84) rotate(-4.61) scale(.69 -4.38)" gradientUnits="userSpaceOnUse">
      <stop offset="0" stop-color="#2295ff" stop-opacity=".65"/>
      <stop offset="1" stop-color="#2295ff" stop-opacity="0"/>
    </radialGradient>
    <radialGradient id="Unbenannter_Verlauf_7" data-name="Unbenannter Verlauf 7" cx="-123.41" cy="-1442.39" fx="-123.41" fy="-1442.39" r="98.74" gradientTransform="translate(3893.93 -7909.44) rotate(16.19) scale(9.86 -6.01)" gradientUnits="userSpaceOnUse">
      <stop offset="0" stop-color="#b34d4d" stop-opacity="0"/>
      <stop offset="1" stop-color="red"/>
    </radialGradient>
  </defs>
  <g>
    <g class="cls-16">
      <g class="cls-2">
        <rect id="rect35924-9-9-9-42-2" class="cls-24" x="336.63" y="37.81" width="279.59" height="279.59"/>
      </g>
    </g>
    <g class="cls-17">
      <g class="cls-10">
        <path id="path35860-8-7-6-4-2" class="cls-27" d="M1038.14,421H255.41V-284.98h782.73V421Z"/>
      </g>
    </g>
  </g>
  <g class="cls-17">
    <g class="cls-13">
      <path id="path35860-8-7-6-4-2-2" data-name="path35860-8-7-6-4-2" class="cls-5" d="M568.68,924.2H-214.05V218.23H568.68V924.2Z"/>
    </g>
  </g>
  <g class="cls-17">
    <g class="cls-12">
      <path id="path35860-8-7-6-4-2-3" data-name="path35860-8-7-6-4-2" class="cls-6" d="M1038.14,924.2H255.41V218.23h782.73V924.2Z"/>
    </g>
  </g>
  <g>
    <rect id="white_background_1" data-name="white background 1" class="cls-9" x="47.6" y="78.42" width="197.49" height="197.49" transform="translate(-82.41 155.37) rotate(-45)"/>
    <rect id="white_background_2" data-name="white background 2" class="cls-9" x="78.41" y="78.41" width="197.51" height="197.51" transform="translate(-73.38 177.17) rotate(-45)"/>
    <rect id="white_background_3" data-name="white background 3" class="cls-9" x="109.24" y="78.42" width="197.49" height="197.49" transform="translate(-64.36 198.96) rotate(-45)"/>
    <g class="cls-16">
      <g class="cls-11">
        <rect id="rect35896-3-4-6-6-2" class="cls-8" x="7.04" y="-7.87" width="279.59" height="355.63"/>
        <rect id="rect35917-90-7-5-4-2" class="cls-22" x="7.04" y="15.36" width="279.59" height="332.41"/>
        <rect id="rect35924-9-9-9-42-2-2" data-name="rect35924-9-9-9-42-2" class="cls-3" x="-132.84" y="37.81" width="279.59" height="279.59"/>
        <polygon id="polygon35937-3-9-0-7-2" class="cls-26" points="175.4 385.96 95.58 87.1 373.05 12.94 452.93 311.75 175.4 385.96"/>
        <polygon id="polygon35948-65-4-8-5-2" class="cls-25" points="-12.46 190.14 331.91 134.55 356.32 285.52 11.94 341.1 -12.46 190.14"/>
        <polygon id="polygon35957-1-3-2-4-2" class="cls-23" points="-25.38 -11.88 315.4 27.01 296.95 305.44 -43.82 266.47 -25.38 -11.88"/>
        <rect id="rect35968-1-9-3-10-2" class="cls-20" x="-31.97" y="156.25" width="367.25" height="189.22"/>
      </g>
    </g>
    <g class="cls-17">
      <g class="cls-15">
        <rect id="rect35803-7-5-9-32-2" class="cls-8" x="37.86" y="-7.89" width="279.62" height="355.67"/>
        <rect id="rect35824-0-2-8-75-2" class="cls-7" x="37.86" y="15.33" width="279.62" height="332.44"/>
        <rect id="rect35826-6-7-8-5-2" class="cls-8" x="-48.34" y="-7.66" width="365.51" height="365.51"/>
        <rect id="rect35843-7-8-8-7-2" class="cls-21" x="-15.32" y="-34.78" width="460.61" height="358.44"/>
        <path id="path35860-8-7-6-4-2-4" data-name="path35860-8-7-6-4-2" class="cls-4" d="M568.68,421H-214.05V-284.98H568.68V421Z"/>
        <polygon id="polygon35877-4-4-8-9-2" class="cls-30" points="346.01 -71.15 406.2 277.38 44.81 339.82 -15.38 -8.78 346.01 -71.15"/>
        <polygon id="polygon35886-19-00-4-03-3" class="cls-28" points="32.73 -19.86 373.54 9.79 347.48 323.66 8.38 221.91 32.73 -19.86"/>
        <polygon id="polygon35886-19-00-4-03-4" class="cls-32" points="-68.14 256.57 -4.59 -12.49 208.97 30.3 145.36 299.31 -68.14 256.57"/>
      </g>
    </g>
    <g class="cls-14">
      <rect id="rect62862-8" class="cls-31" x="109.24" y="78.42" width="197.49" height="197.49" transform="translate(-64.36 198.96) rotate(-45)"/>
      <rect id="rect62862" class="cls-19" x="109.24" y="78.42" width="197.49" height="197.49" transform="translate(-64.36 198.96) rotate(-45)"/>
      <rect id="rect62862-7-2" data-name="rect62862-7" class="cls-29" x="109.24" y="78.42" width="197.49" height="197.49" transform="translate(-64.36 198.96) rotate(-45)"/>
    </g>
  </g>
  <g>
    <g>
      <path class="cls-9" d="M195.24,237.25h-36.62c-3.47,0-6.29-2.83-6.29-6.3V123.38c0-3.47,2.82-6.29,6.29-6.29h66.67c1.68,0,3.26,.65,4.45,1.84l18.02,18.02c1.17,1.17,1.84,2.79,1.84,4.45v24.33c0,1.58-1.28,2.86-2.86,2.86s-2.86-1.28-2.86-2.86v-24.33l-18.18-18.42-67.08-.17c-.31,0-.57,.26-.57,.57v107.57c0,.32,.26,.58,.57,.58h36.62c1.58,0,2.86,1.28,2.86,2.86s-1.28,2.86-2.86,2.86Z"/>
      <g>
        <path class="cls-9" d="M223.85,139.4v-17.43c0-1.12,.91-2.02,2.02-2.02,.54,0,1.05,.21,1.43,.59l18.84,18.84c.38,.38,.59,.89,.59,1.43,0,1.12-.91,2.02-2.02,2.02h-17.43c-1.9,0-3.43-1.54-3.43-3.43Z"/>
        <path class="cls-9" d="M244.72,145.69h-17.43c-3.47,0-6.29-2.82-6.29-6.29v-17.43c0-2.69,2.19-4.88,4.88-4.88,1.3,0,2.53,.51,3.45,1.43l18.84,18.84c.92,.91,1.43,2.14,1.43,3.45,0,2.69-2.19,4.88-4.88,4.88Zm-.59-4.29h0Zm-17.42-17.41v15.41c0,.32,.26,.57,.57,.57h15.41l-15.98-15.98Z"/>
      </g>
    </g>
    <g class="cls-18">
      <path class="cls-9" d="M230.8,236.79h0c-3.4,0-6.67-1.44-8.96-3.96-1.29-1.42-3.14-2.18-5.02-2.08-3.35,.24-6.73-1.13-9.14-3.54-2.41-2.41-3.7-5.73-3.54-9.14,.09-1.91-.67-3.74-2.08-5.02-2.51-2.29-3.96-5.56-3.96-8.96s1.44-6.67,3.96-8.96c1.41-1.28,2.17-3.11,2.08-5.02-.16-3.4,1.13-6.73,3.54-9.14s5.77-3.69,9.14-3.53c1.94,.15,3.74-.67,5.02-2.08h0c2.29-2.51,5.55-3.96,8.96-3.96h0c3.4,0,6.67,1.44,8.96,3.96,1.29,1.42,3.13,2.19,5.03,2.08,3.38-.18,6.73,1.13,9.14,3.54,2.41,2.41,3.69,5.74,3.53,9.13-.08,1.91,.67,3.74,2.09,5.02,2.51,2.29,3.96,5.56,3.96,8.96s-1.44,6.67-3.96,8.96c-1.42,1.29-2.17,3.12-2.09,5.03,.16,3.4-1.12,6.73-3.53,9.13-2.4,2.41-5.62,3.76-9.14,3.54-1.8-.02-3.74,.66-5.02,2.08-2.3,2.51-5.57,3.96-8.96,3.96Zm-13.66-11.77c3.39,0,6.62,1.42,8.93,3.96,1.22,1.35,2.9,2.09,4.72,2.09h0c1.82,0,3.5-.74,4.73-2.09,2.44-2.68,5.81-4.17,9.53-3.94,1.73,0,3.52-.58,4.82-1.87,1.29-1.29,1.95-3,1.87-4.82-.17-3.62,1.27-7.09,3.95-9.53,1.35-1.22,2.09-2.91,2.09-4.73s-.74-3.5-2.09-4.73c-2.68-2.43-4.12-5.91-3.95-9.52,.08-1.82-.58-3.53-1.87-4.82-1.29-1.29-3.06-1.97-4.82-1.87-3.65,.2-7.09-1.27-9.53-3.95-1.22-1.35-2.91-2.09-4.73-2.09h0c-1.82,0-3.5,.74-4.72,2.09-2.44,2.68-5.91,4.18-9.53,3.95-1.8-.1-3.53,.58-4.82,1.87-1.29,1.29-1.96,3-1.87,4.82,.17,3.62-1.27,7.09-3.94,9.53-1.35,1.22-2.09,2.91-2.09,4.73s.74,3.5,2.09,4.73c2.67,2.44,4.11,5.91,3.94,9.53-.08,1.82,.58,3.53,1.87,4.82s3.11,1.87,4.82,1.87c.2-.01,.4-.02,.6-.02Z"/>
      <path class="cls-9" d="M227.68,213.2c-.73,0-1.46-.28-2.02-.84l-6.24-6.24c-1.12-1.12-1.12-2.93,0-4.05s2.93-1.12,4.05,0l4.22,4.22,10.46-10.46c1.12-1.12,2.93-1.12,4.05,0s1.12,2.93,0,4.05l-12.48,12.48c-.56,.56-1.29,.84-2.02,.84Z"/>
    </g>
  </g>
</svg>