<?xml version="1.0" encoding="UTF-8"?>
<svg id="Ebene_1" data-name="Ebene 1" xmlns="http://www.w3.org/2000/svg" viewBox="0 0 24 24">
  <defs>
    <style>
      .cls-1, .cls-2 {
        stroke-linecap: round;
        stroke-linejoin: round;
      }

      .cls-1, .cls-2, .cls-3 {
        stroke: #000;
      }

      .cls-1, .cls-3 {
        fill: none;
      }

      .cls-4 {
        opacity: .5;
      }
    </style>
  </defs>
  <g>
    <path class="cls-1" d="M18.8,10V5.74c0-.16-.06-.31-.18-.43l-3.16-3.15c-.11-.11-.27-.18-.43-.18H3.37c-.33,0-.6,.27-.6,.6V21.42c0,.33,.27,.6,.6,.6h6.41"/>
    <path class="cls-2" d="M14.79,5.39V2.33c0-.2,.16-.35,.35-.35,.09,0,.18,.04,.25,.1l3.3,3.3c.07,.07,.1,.16,.1,.25,0,.2-.16,.35-.35,.35h-3.05c-.33,0-.6-.27-.6-.6Z"/>
  </g>
  <g class="cls-4">
    <path class="cls-3" d="M14.81,12.02c.64-.71,1.75-.71,2.4,0h0c.33,.36,.79,.55,1.27,.53h0c.95-.04,1.74,.74,1.7,1.7h0c-.02,.48,.17,.95,.53,1.27h0c.71,.64,.71,1.75,0,2.4h0c-.36,.33-.55,.79-.53,1.27h0c.04,.95-.74,1.74-1.7,1.7h0c-.48-.02-.95,.17-1.27,.53h0c-.64,.71-1.75,.71-2.4,0h0c-.33-.36-.79-.55-1.27-.53h0c-.95,.04-1.74-.74-1.7-1.7h0c.02-.48-.17-.95-.53-1.27h0c-.71-.64-.71-1.75,0-2.4h0c.36-.33,.55-.79,.53-1.27h0c-.04-.95,.74-1.74,1.7-1.7h0c.48,.02,.95-.17,1.27-.53h0Z"/>
    <path class="cls-1" d="M14.37,16.72l1.09,1.09,2.19-2.19"/>
  </g>
</svg>