<?xml version="1.0" encoding="UTF-8"?>
<svg id="Ebene_1" data-name="Ebene 1" xmlns="http://www.w3.org/2000/svg" xmlns:xlink="http://www.w3.org/1999/xlink" viewBox="0 0 354.33 354.33">
  <defs>
    <style>
      .cls-1 {
        fill: none;
      }

      .cls-2 {
        clip-path: url(#clippath);
      }

      .cls-3 {
        fill: url(#Unbenannter_Verlauf_29-2);
      }

      .cls-4 {
        fill: url(#Unbenannter_Verlauf_22-2);
      }

      .cls-5 {
        fill: url(#Unbenannter_Verlauf_22-3);
      }

      .cls-6 {
        fill: url(#Unbenannter_Verlauf_24-2);
      }

      .cls-7 {
        fill: #002a60;
      }

      .cls-8 {
        fill: #fff;
      }

      .cls-9 {
        clip-path: url(#clippath-1);
      }

      .cls-10 {
        clip-path: url(#clippath-4);
      }

      .cls-11 {
        clip-path: url(#clippath-3);
      }

      .cls-12 {
        clip-path: url(#clippath-2);
      }

      .cls-13 {
        clip-path: url(#clippath-5);
      }

      .cls-14 {
        opacity: .23;
      }

      .cls-15 {
        opacity: .43;
      }

      .cls-16, .cls-17 {
        opacity: .5;
      }

      .cls-18 {
        fill: url(#Unbenannter_Verlauf_25);
      }

      .cls-19 {
        fill: url(#Unbenannter_Verlauf_23);
      }

      .cls-20 {
        fill: url(#Unbenannter_Verlauf_24);
      }

      .cls-21 {
        fill: url(#Unbenannter_Verlauf_26);
      }

      .cls-22 {
        fill: url(#Unbenannter_Verlauf_29);
      }

      .cls-23 {
        fill: url(#Unbenannter_Verlauf_27);
      }

      .cls-24 {
        fill: url(#Unbenannter_Verlauf_28);
      }

      .cls-25 {
        fill: url(#Unbenannter_Verlauf_22);
      }

      .cls-26 {
        fill: url(#Unbenannter_Verlauf_20);
      }

      .cls-27 {
        fill: url(#Unbenannter_Verlauf_7);
      }

      .cls-28 {
        fill: url(#Unbenannter_Verlauf_21);
        opacity: .29;
      }

      .cls-28, .cls-29, .cls-17, .cls-30 {
        isolation: isolate;
      }

      .cls-29 {
        fill: url(#Unbenannter_Verlauf_18);
        opacity: .9;
      }

      .cls-17 {
        fill: url(#Unbenannter_Verlauf_17);
      }

      .cls-30 {
        fill: url(#Unbenannter_Verlauf_19);
        opacity: .61;
      }
    </style>
    <clipPath id="clippath">
      <rect class="cls-1" x="547.88" y="540.11" width="197.51" height="197.51" transform="translate(-262.36 644.36) rotate(-45)"/>
    </clipPath>
    <radialGradient id="Unbenannter_Verlauf_22" data-name="Unbenannter Verlauf 22" cx="4091.17" cy="-3802.14" fx="4091.17" fy="-3802.14" r="182.49" gradientTransform="translate(-7979.14 -5406.19) scale(2.11 -1.56)" gradientUnits="userSpaceOnUse">
      <stop offset="0" stop-color="#002a60" stop-opacity="0"/>
      <stop offset=".1" stop-color="#082a5f" stop-opacity=".1"/>
      <stop offset=".27" stop-color="#1e295d" stop-opacity=".27"/>
      <stop offset=".47" stop-color="#43285a" stop-opacity=".47"/>
      <stop offset=".7" stop-color="#752655" stop-opacity=".7"/>
      <stop offset=".95" stop-color="#b5244f" stop-opacity=".95"/>
      <stop offset="1" stop-color="#c2244e"/>
    </radialGradient>
    <clipPath id="clippath-1">
      <rect class="cls-1" x="47.6" y="78.42" width="197.49" height="197.49" transform="translate(-82.41 155.37) rotate(-45)"/>
    </clipPath>
    <linearGradient id="Unbenannter_Verlauf_24" data-name="Unbenannter Verlauf 24" x1="89.53" y1="-818.86" x2="89.53" y2="-1151.26" gradientTransform="translate(57.31 1166.62)" gradientUnits="userSpaceOnUse">
      <stop offset="0" stop-color="#c2244e"/>
      <stop offset=".03" stop-color="#b42855"/>
      <stop offset=".15" stop-color="#8a346a"/>
      <stop offset=".25" stop-color="#693d7a"/>
      <stop offset=".36" stop-color="#524486"/>
      <stop offset=".45" stop-color="#44488d"/>
      <stop offset=".54" stop-color="#3f498f"/>
      <stop offset=".88" stop-color="#2c8ae1"/>
      <stop offset="1" stop-color="#25a1ff"/>
    </linearGradient>
    <linearGradient id="Unbenannter_Verlauf_29" data-name="Unbenannter Verlauf 29" x1="-190.15" y1="-989.02" x2="89.44" y2="-989.02" gradientTransform="translate(57.31 1166.62)" gradientUnits="userSpaceOnUse">
      <stop offset=".22" stop-color="#0051b4"/>
      <stop offset="1" stop-color="#37529c" stop-opacity="0"/>
    </linearGradient>
    <radialGradient id="Unbenannter_Verlauf_28" data-name="Unbenannter Verlauf 28" cx="7264.21" cy="-2499.95" fx="7264.21" fy="-2499.95" r="68.82" gradientTransform="translate(9417.61 14371.03) rotate(-105.23) scale(2.23 2.04) skewX(.89)" gradientUnits="userSpaceOnUse">
      <stop offset=".1" stop-color="#002a60"/>
      <stop offset=".32" stop-color="#042d65" stop-opacity=".76"/>
      <stop offset=".57" stop-color="#113672" stop-opacity=".48"/>
      <stop offset=".83" stop-color="#254589" stop-opacity=".19"/>
      <stop offset="1" stop-color="#37529c" stop-opacity="0"/>
    </radialGradient>
    <linearGradient id="Unbenannter_Verlauf_27" data-name="Unbenannter Verlauf 27" x1="1508.17" y1="-1675.45" x2="1508.17" y2="-1828.39" gradientTransform="translate(-1410 2267.8) rotate(-9.17) scale(1.25 1)" gradientUnits="userSpaceOnUse">
      <stop offset="0" stop-color="#c2244e"/>
      <stop offset=".54" stop-color="#703f7c" stop-opacity=".61"/>
      <stop offset=".54" stop-color="#6e407d" stop-opacity=".6"/>
      <stop offset=".88" stop-color="#37529c" stop-opacity="0"/>
    </linearGradient>
    <linearGradient id="Unbenannter_Verlauf_26" data-name="Unbenannter Verlauf 26" x1="1112.96" y1="-309.04" x2="1100.39" y2="-167.92" gradientTransform="translate(-1258.65 562.71) rotate(4.97) scale(1.22 2.01)" gradientUnits="userSpaceOnUse">
      <stop offset=".05" stop-color="#25a1ff"/>
      <stop offset=".47" stop-color="#108fff" stop-opacity=".74"/>
      <stop offset="1" stop-color="#0037d3" stop-opacity="0"/>
    </linearGradient>
    <linearGradient id="Unbenannter_Verlauf_25" data-name="Unbenannter Verlauf 25" x1="94.34" y1="-821.16" x2="94.34" y2="-1010.38" gradientTransform="translate(57.31 1166.62)" gradientUnits="userSpaceOnUse">
      <stop offset=".15" stop-color="#c2244e"/>
      <stop offset=".61" stop-color="#703f7c" stop-opacity=".61"/>
      <stop offset=".88" stop-color="#37529c" stop-opacity="0"/>
    </linearGradient>
    <clipPath id="clippath-2">
      <rect class="cls-1" x="78.41" y="78.41" width="197.51" height="197.51" transform="translate(-73.38 177.17) rotate(-45)"/>
    </clipPath>
    <linearGradient id="Unbenannter_Verlauf_24-2" data-name="Unbenannter Verlauf 24" x1="120.35" y1="-2717.77" x2="120.35" y2="-2385.33" gradientTransform="translate(57.31 -2370) scale(1 -1)" xlink:href="#Unbenannter_Verlauf_24"/>
    <linearGradient id="Unbenannter_Verlauf_23" data-name="Unbenannter Verlauf 23" x1="193.22" y1="-2427.08" x2="113.65" y2="-2622.64" gradientTransform="translate(57.31 -2370) scale(1 -1)" gradientUnits="userSpaceOnUse">
      <stop offset=".08" stop-color="#25a1ff"/>
      <stop offset=".23" stop-color="#1b81d5"/>
      <stop offset=".4" stop-color="#1162ab"/>
      <stop offset=".57" stop-color="#0a4a8a"/>
      <stop offset=".72" stop-color="#043873"/>
      <stop offset=".87" stop-color="#012e65"/>
      <stop offset="1" stop-color="#002a60"/>
    </linearGradient>
    <radialGradient id="Unbenannter_Verlauf_22-2" data-name="Unbenannter Verlauf 22" cx="3868.68" cy="-3506.17" fx="3868.68" fy="-3506.17" r="182.49" xlink:href="#Unbenannter_Verlauf_22"/>
    <linearGradient id="Unbenannter_Verlauf_21" data-name="Unbenannter Verlauf 21" x1="3673.16" y1="-11046.21" x2="4026.91" y2="-11046.21" gradientTransform="translate(10425.12 -5539.71) rotate(80.2) scale(1 -1)" gradientUnits="userSpaceOnUse">
      <stop offset="0" stop-color="#002a60" stop-opacity="0"/>
      <stop offset=".1" stop-color="#082a5f" stop-opacity=".1"/>
      <stop offset=".27" stop-color="#1e295d" stop-opacity=".27"/>
      <stop offset=".47" stop-color="#43285a" stop-opacity=".47"/>
      <stop offset=".7" stop-color="#752655" stop-opacity=".7"/>
      <stop offset=".89" stop-color="#b5244f" stop-opacity=".95"/>
      <stop offset="1" stop-color="#c2244e"/>
    </linearGradient>
    <linearGradient id="Unbenannter_Verlauf_20" data-name="Unbenannter Verlauf 20" x1="1427.76" y1="-3110.71" x2="1415.46" y2="-3208.6" gradientTransform="translate(-982.38 -6356.74) rotate(4.97) scale(1.22 -2.01)" gradientUnits="userSpaceOnUse">
      <stop offset=".18" stop-color="#25a1ff"/>
      <stop offset=".46" stop-color="#1a7cd5" stop-opacity=".74"/>
      <stop offset="1" stop-color="#37529c" stop-opacity="0"/>
    </linearGradient>
    <linearGradient id="Unbenannter_Verlauf_19" data-name="Unbenannter Verlauf 19" x1="1917.87" y1="-1350.43" x2="1926.8" y2="-1437.1" gradientTransform="translate(-3180.06 1784.43) rotate(-76.71) scale(1.22 -2.01)" gradientUnits="userSpaceOnUse">
      <stop offset=".05" stop-color="#25a1ff"/>
      <stop offset=".28" stop-color="#1a7cd5" stop-opacity=".74"/>
      <stop offset="1" stop-color="#37529c" stop-opacity="0"/>
    </linearGradient>
    <clipPath id="clippath-3">
      <rect id="rect62862-7" class="cls-1" x="109.24" y="78.42" width="197.49" height="197.49" transform="translate(-64.36 198.96) rotate(-45)"/>
    </clipPath>
    <linearGradient id="Unbenannter_Verlauf_18" data-name="Unbenannter Verlauf 18" x1="-3006.49" y1="-3574.88" x2="-2809" y2="-3574.88" gradientTransform="translate(3115.73 -3397.72) scale(1 -1)" gradientUnits="userSpaceOnUse">
      <stop offset="0" stop-color="#073d84"/>
      <stop offset=".84" stop-color="#003c8b" stop-opacity=".64"/>
      <stop offset="1" stop-color="#004eb5" stop-opacity=".6"/>
    </linearGradient>
    <radialGradient id="Unbenannter_Verlauf_17" data-name="Unbenannter Verlauf 17" cx="-2022.95" cy="-2058.81" fx="-2022.95" fy="-2058.81" r="98.74" gradientTransform="translate(976.51 -8995.12) rotate(-4.61) scale(.69 -4.38)" gradientUnits="userSpaceOnUse">
      <stop offset="0" stop-color="#2295ff" stop-opacity=".65"/>
      <stop offset="1" stop-color="#2295ff" stop-opacity="0"/>
    </radialGradient>
    <radialGradient id="Unbenannter_Verlauf_7" data-name="Unbenannter Verlauf 7" cx="-147.99" cy="-2018.94" fx="-147.99" fy="-2018.94" r="98.74" gradientTransform="translate(5093.38 -11170.37) rotate(16.19) scale(9.86 -6.01)" gradientUnits="userSpaceOnUse">
      <stop offset="0" stop-color="#b34d4d" stop-opacity="0"/>
      <stop offset="1" stop-color="red"/>
    </radialGradient>
    <clipPath id="clippath-4">
      <rect class="cls-1" x="517.06" y="78.42" width="197.49" height="197.49" transform="translate(55.09 487.33) rotate(-45)"/>
    </clipPath>
    <linearGradient id="Unbenannter_Verlauf_29-2" data-name="Unbenannter Verlauf 29" x1="279.32" x2="558.91" xlink:href="#Unbenannter_Verlauf_29"/>
    <clipPath id="clippath-5">
      <rect class="cls-1" x="547.88" y="78.41" width="197.51" height="197.51" transform="translate(64.12 509.13) rotate(-45)"/>
    </clipPath>
    <radialGradient id="Unbenannter_Verlauf_22-3" data-name="Unbenannter Verlauf 22" cy="-3506.17" fy="-3506.17" r="182.49" xlink:href="#Unbenannter_Verlauf_22"/>
  </defs>
  <g class="cls-15">
    <g class="cls-2">
      <path id="path35860-8-7-6-4-2" class="cls-25" d="M1038.14,882.7H255.41V176.73h782.73V882.7Z"/>
    </g>
  </g>
  <g>
    <rect id="white_background_1" data-name="white background 1" class="cls-8" x="47.6" y="78.42" width="197.49" height="197.49" transform="translate(-82.41 155.37) rotate(-45)"/>
    <rect id="white_background_2" data-name="white background 2" class="cls-8" x="78.41" y="78.41" width="197.51" height="197.51" transform="translate(-73.38 177.17) rotate(-45)"/>
    <rect id="white_background_3" data-name="white background 3" class="cls-8" x="109.24" y="78.42" width="197.49" height="197.49" transform="translate(-64.36 198.96) rotate(-45)"/>
    <g class="cls-14">
      <g class="cls-9">
        <rect id="rect35896-3-4-6-6-2" class="cls-7" x="7.04" y="-7.87" width="279.59" height="355.63"/>
        <rect id="rect35917-90-7-5-4-2" class="cls-20" x="7.04" y="15.36" width="279.59" height="332.41"/>
        <rect id="rect35924-9-9-9-42-2" class="cls-22" x="-132.84" y="37.81" width="279.59" height="279.59"/>
        <polygon id="polygon35937-3-9-0-7-2" class="cls-24" points="175.4 385.96 95.58 87.1 373.05 12.94 452.93 311.75 175.4 385.96"/>
        <polygon id="polygon35948-65-4-8-5-2" class="cls-23" points="-12.46 190.14 331.91 134.55 356.32 285.52 11.94 341.1 -12.46 190.14"/>
        <polygon id="polygon35957-1-3-2-4-2" class="cls-21" points="-25.38 -11.88 315.4 27.01 296.95 305.44 -43.82 266.47 -25.38 -11.88"/>
        <rect id="rect35968-1-9-3-10-2" class="cls-18" x="-31.97" y="156.25" width="367.25" height="189.22"/>
      </g>
    </g>
    <g class="cls-15">
      <g class="cls-12">
        <rect id="rect35803-7-5-9-32-2" class="cls-7" x="37.86" y="-7.89" width="279.62" height="355.67"/>
        <rect id="rect35824-0-2-8-75-2" class="cls-6" x="37.86" y="15.33" width="279.62" height="332.44"/>
        <rect id="rect35826-6-7-8-5-2" class="cls-7" x="-48.34" y="-7.66" width="365.51" height="365.51"/>
        <rect id="rect35843-7-8-8-7-2" class="cls-19" x="-15.32" y="-34.78" width="460.61" height="358.44"/>
        <path id="path35860-8-7-6-4-2-2" data-name="path35860-8-7-6-4-2" class="cls-4" d="M568.68,421H-214.05V-284.98H568.68V421Z"/>
        <polygon id="polygon35877-4-4-8-9-2" class="cls-28" points="346.01 -71.15 406.2 277.38 44.81 339.82 -15.38 -8.78 346.01 -71.15"/>
        <polygon id="polygon35886-19-00-4-03-3" class="cls-26" points="32.73 -19.86 373.54 9.79 347.48 323.66 8.38 221.91 32.73 -19.86"/>
        <polygon id="polygon35886-19-00-4-03-4" class="cls-30" points="-68.14 256.57 -4.59 -12.49 208.97 30.3 145.36 299.31 -68.14 256.57"/>
      </g>
    </g>
    <g class="cls-11">
      <rect id="rect62862-8" class="cls-29" x="109.24" y="78.42" width="197.49" height="197.49" transform="translate(-64.36 198.96) rotate(-45)"/>
      <rect id="rect62862" class="cls-17" x="109.24" y="78.42" width="197.49" height="197.49" transform="translate(-64.36 198.96) rotate(-45)"/>
      <rect id="rect62862-7-2" data-name="rect62862-7" class="cls-27" x="109.24" y="78.42" width="197.49" height="197.49" transform="translate(-64.36 198.96) rotate(-45)"/>
    </g>
  </g>
  <g>
    <path class="cls-8" d="M253.27,223.97h-89.81c-8.85,0-16.04-7.2-16.04-16.04v-57.74c0-8.84,7.19-16.04,16.04-16.04h89.81c8.85,0,16.04,7.2,16.04,16.04v57.74c0,8.84-7.19,16.04-16.04,16.04Zm-89.81-83.4c-5.31,0-9.62,4.32-9.62,9.62v57.74c0,5.31,4.32,9.62,9.62,9.62h89.81c5.31,0,9.62-4.32,9.62-9.62v-57.74c0-5.31-4.32-9.62-9.62-9.62h-89.81Z"/>
    <g class="cls-16">
      <path class="cls-8" d="M237.23,182.27c-1.77,0-3.21-1.44-3.21-3.21s1.44-3.21,3.21-3.21,3.21,1.44,3.21,3.21-1.44,3.21-3.21,3.21Z"/>
      <path class="cls-8" d="M237.23,185.48c-3.54,0-6.42-2.88-6.42-6.42s2.88-6.42,6.42-6.42,6.42,2.88,6.42,6.42-2.88,6.42-6.42,6.42Zm0-6.42h0v0Z"/>
    </g>
    <path class="cls-8" d="M153.83,150.2h-6.42v-2.97c0-7.25,4.89-13.63,11.9-15.5l70.57-18.82c4.85-1.3,9.92-.28,13.91,2.78,3.98,3.06,6.26,7.7,6.26,12.72v8.96h-6.42v-8.96c0-3.01-1.37-5.79-3.76-7.63-2.39-1.83-5.44-2.45-8.34-1.67l-70.57,18.82c-4.2,1.12-7.14,4.95-7.14,9.3v2.97Z"/>
  </g>
  <g>
    <g class="cls-14">
      <g class="cls-10">
        <rect id="rect35924-9-9-9-42-2-2" data-name="rect35924-9-9-9-42-2" class="cls-3" x="336.63" y="37.81" width="279.59" height="279.59"/>
      </g>
    </g>
    <g class="cls-15">
      <g class="cls-13">
        <path id="path35860-8-7-6-4-2-3" data-name="path35860-8-7-6-4-2" class="cls-5" d="M1038.14,421H255.41V-284.98h782.73V421Z"/>
      </g>
    </g>
  </g>
</svg>