<?xml version="1.0" encoding="UTF-8"?>
<svg id="Ebene_1" data-name="Ebene 1" xmlns="http://www.w3.org/2000/svg" xmlns:xlink="http://www.w3.org/1999/xlink" viewBox="0 0 354.33 354.33">
  <defs>
    <style>
      .cls-1 {
        fill: none;
      }

      .cls-2 {
        clip-path: url(#clippath);
      }

      .cls-3 {
        fill: url(#Unbenannter_Verlauf_29-2);
      }

      .cls-4 {
        fill: url(#Unbenannter_Verlauf_22-2);
      }

      .cls-5 {
        fill: url(#Unbenannter_Verlauf_24-2);
      }

      .cls-6 {
        fill: #002a60;
      }

      .cls-7 {
        fill: #fff;
      }

      .cls-8 {
        clip-path: url(#clippath-1);
      }

      .cls-9 {
        clip-path: url(#clippath-4);
      }

      .cls-10 {
        clip-path: url(#clippath-3);
      }

      .cls-11 {
        clip-path: url(#clippath-2);
      }

      .cls-12 {
        opacity: .23;
      }

      .cls-13 {
        opacity: .43;
      }

      .cls-14, .cls-15 {
        opacity: .5;
      }

      .cls-16 {
        fill: url(#Unbenannter_Verlauf_25);
      }

      .cls-17 {
        fill: url(#Unbenannter_Verlauf_23);
      }

      .cls-18 {
        fill: url(#Unbenannter_Verlauf_24);
      }

      .cls-19 {
        fill: url(#Unbenannter_Verlauf_26);
      }

      .cls-20 {
        fill: url(#Unbenannter_Verlauf_29);
      }

      .cls-21 {
        fill: url(#Unbenannter_Verlauf_27);
      }

      .cls-22 {
        fill: url(#Unbenannter_Verlauf_28);
      }

      .cls-23 {
        fill: url(#Unbenannter_Verlauf_22);
      }

      .cls-24 {
        fill: url(#Unbenannter_Verlauf_20);
      }

      .cls-25 {
        fill: url(#Unbenannter_Verlauf_7);
      }

      .cls-26 {
        fill: url(#Unbenannter_Verlauf_21);
        opacity: .29;
      }

      .cls-26, .cls-27, .cls-15, .cls-28 {
        isolation: isolate;
      }

      .cls-27 {
        fill: url(#Unbenannter_Verlauf_18);
        opacity: .9;
      }

      .cls-15 {
        fill: url(#Unbenannter_Verlauf_17);
      }

      .cls-28 {
        fill: url(#Unbenannter_Verlauf_19);
        opacity: .61;
      }
    </style>
    <clipPath id="clippath">
      <rect class="cls-1" x="47.6" y="78.42" width="197.49" height="197.49" transform="translate(-82.41 155.37) rotate(-45)"/>
    </clipPath>
    <linearGradient id="Unbenannter_Verlauf_24" data-name="Unbenannter Verlauf 24" x1="89.53" y1="-818.86" x2="89.53" y2="-1151.26" gradientTransform="translate(57.31 1166.62)" gradientUnits="userSpaceOnUse">
      <stop offset="0" stop-color="#c2244e"/>
      <stop offset=".03" stop-color="#b42855"/>
      <stop offset=".15" stop-color="#8a346a"/>
      <stop offset=".25" stop-color="#693d7a"/>
      <stop offset=".36" stop-color="#524486"/>
      <stop offset=".45" stop-color="#44488d"/>
      <stop offset=".54" stop-color="#3f498f"/>
      <stop offset=".88" stop-color="#2c8ae1"/>
      <stop offset="1" stop-color="#25a1ff"/>
    </linearGradient>
    <linearGradient id="Unbenannter_Verlauf_29" data-name="Unbenannter Verlauf 29" x1="-190.15" y1="-989.02" x2="89.44" y2="-989.02" gradientTransform="translate(57.31 1166.62)" gradientUnits="userSpaceOnUse">
      <stop offset=".22" stop-color="#0051b4"/>
      <stop offset="1" stop-color="#37529c" stop-opacity="0"/>
    </linearGradient>
    <radialGradient id="Unbenannter_Verlauf_28" data-name="Unbenannter Verlauf 28" cx="7065.36" cy="-3021.11" fx="7065.36" fy="-3021.11" r="68.82" gradientTransform="translate(10322.21 13646.46) rotate(-105.23) scale(2.23 2.04) skewX(.89)" gradientUnits="userSpaceOnUse">
      <stop offset=".1" stop-color="#002a60"/>
      <stop offset=".32" stop-color="#042d65" stop-opacity=".76"/>
      <stop offset=".57" stop-color="#113672" stop-opacity=".48"/>
      <stop offset=".83" stop-color="#254589" stop-opacity=".19"/>
      <stop offset="1" stop-color="#37529c" stop-opacity="0"/>
    </radialGradient>
    <linearGradient id="Unbenannter_Verlauf_27" data-name="Unbenannter Verlauf 27" x1="1449.31" y1="-1681.35" x2="1449.31" y2="-1834.29" gradientTransform="translate(-1336.42 2261.89) rotate(-9.17) scale(1.25 1)" gradientUnits="userSpaceOnUse">
      <stop offset="0" stop-color="#c2244e"/>
      <stop offset=".54" stop-color="#703f7c" stop-opacity=".61"/>
      <stop offset=".54" stop-color="#6e407d" stop-opacity=".6"/>
      <stop offset=".88" stop-color="#37529c" stop-opacity="0"/>
    </linearGradient>
    <linearGradient id="Unbenannter_Verlauf_26" data-name="Unbenannter Verlauf 26" x1="1145.74" y1="-541.9" x2="1133.18" y2="-400.78" gradientTransform="translate(-1339.05 1025.55) rotate(4.97) scale(1.22 2.01)" gradientUnits="userSpaceOnUse">
      <stop offset=".05" stop-color="#25a1ff"/>
      <stop offset=".47" stop-color="#108fff" stop-opacity=".74"/>
      <stop offset="1" stop-color="#0037d3" stop-opacity="0"/>
    </linearGradient>
    <linearGradient id="Unbenannter_Verlauf_25" data-name="Unbenannter Verlauf 25" x1="94.34" y1="-821.16" x2="94.34" y2="-1010.38" gradientTransform="translate(57.31 1166.62)" gradientUnits="userSpaceOnUse">
      <stop offset=".15" stop-color="#c2244e"/>
      <stop offset=".61" stop-color="#703f7c" stop-opacity=".61"/>
      <stop offset=".88" stop-color="#37529c" stop-opacity="0"/>
    </linearGradient>
    <clipPath id="clippath-1">
      <rect class="cls-1" x="78.41" y="78.41" width="197.51" height="197.51" transform="translate(-73.38 177.17) rotate(-45)"/>
    </clipPath>
    <linearGradient id="Unbenannter_Verlauf_24-2" data-name="Unbenannter Verlauf 24" x1="120.35" y1="-3641.18" x2="120.35" y2="-3308.74" gradientTransform="translate(57.31 -3293.41) scale(1 -1)" xlink:href="#Unbenannter_Verlauf_24"/>
    <linearGradient id="Unbenannter_Verlauf_23" data-name="Unbenannter Verlauf 23" x1="193.22" y1="-3350.49" x2="113.65" y2="-3546.05" gradientTransform="translate(57.31 -3293.41) scale(1 -1)" gradientUnits="userSpaceOnUse">
      <stop offset=".08" stop-color="#25a1ff"/>
      <stop offset=".23" stop-color="#1b81d5"/>
      <stop offset=".4" stop-color="#1162ab"/>
      <stop offset=".57" stop-color="#0a4a8a"/>
      <stop offset=".72" stop-color="#043873"/>
      <stop offset=".87" stop-color="#012e65"/>
      <stop offset="1" stop-color="#002a60"/>
    </linearGradient>
    <radialGradient id="Unbenannter_Verlauf_22" data-name="Unbenannter Verlauf 22" cx="3868.68" cy="-4263.84" fx="3868.68" fy="-4263.84" r="182.49" gradientTransform="translate(-7979.14 -6588.15) scale(2.11 -1.56)" gradientUnits="userSpaceOnUse">
      <stop offset="0" stop-color="#002a60" stop-opacity="0"/>
      <stop offset=".1" stop-color="#082a5f" stop-opacity=".1"/>
      <stop offset=".27" stop-color="#1e295d" stop-opacity=".27"/>
      <stop offset=".47" stop-color="#43285a" stop-opacity=".47"/>
      <stop offset=".7" stop-color="#752655" stop-opacity=".7"/>
      <stop offset=".95" stop-color="#b5244f" stop-opacity=".95"/>
      <stop offset="1" stop-color="#c2244e"/>
    </radialGradient>
    <linearGradient id="Unbenannter_Verlauf_21" data-name="Unbenannter Verlauf 21" x1="4128.12" y1="-11586.5" x2="4481.88" y2="-11586.5" gradientTransform="translate(10880.09 -6080.01) rotate(80.2) scale(1 -1)" gradientUnits="userSpaceOnUse">
      <stop offset="0" stop-color="#002a60" stop-opacity="0"/>
      <stop offset=".1" stop-color="#082a5f" stop-opacity=".1"/>
      <stop offset=".27" stop-color="#1e295d" stop-opacity=".27"/>
      <stop offset=".47" stop-color="#43285a" stop-opacity=".47"/>
      <stop offset=".7" stop-color="#752655" stop-opacity=".7"/>
      <stop offset=".89" stop-color="#b5244f" stop-opacity=".95"/>
      <stop offset="1" stop-color="#c2244e"/>
    </linearGradient>
    <linearGradient id="Unbenannter_Verlauf_20" data-name="Unbenannter Verlauf 20" x1="1460.55" y1="-3801.25" x2="1448.24" y2="-3899.15" gradientTransform="translate(-901.98 -7742.98) rotate(4.97) scale(1.22 -2.01)" gradientUnits="userSpaceOnUse">
      <stop offset=".18" stop-color="#25a1ff"/>
      <stop offset=".46" stop-color="#1a7cd5" stop-opacity=".74"/>
      <stop offset="1" stop-color="#37529c" stop-opacity="0"/>
    </linearGradient>
    <linearGradient id="Unbenannter_Verlauf_19" data-name="Unbenannter Verlauf 19" x1="1549.55" y1="-1864.93" x2="1558.49" y2="-1951.61" gradientTransform="translate(-4083.24 1109.39) rotate(-76.71) scale(1.22 -2.01)" gradientUnits="userSpaceOnUse">
      <stop offset=".05" stop-color="#25a1ff"/>
      <stop offset=".28" stop-color="#1a7cd5" stop-opacity=".74"/>
      <stop offset="1" stop-color="#37529c" stop-opacity="0"/>
    </linearGradient>
    <clipPath id="clippath-2">
      <rect id="rect62862-7" class="cls-1" x="109.24" y="78.42" width="197.49" height="197.49" transform="translate(-64.36 198.96) rotate(-45)"/>
    </clipPath>
    <linearGradient id="Unbenannter_Verlauf_18" data-name="Unbenannter Verlauf 18" x1="-3332.96" y1="-4363.07" x2="-3135.47" y2="-4363.07" gradientTransform="translate(3442.21 -4185.9) scale(1 -1)" gradientUnits="userSpaceOnUse">
      <stop offset="0" stop-color="#073d84"/>
      <stop offset=".84" stop-color="#003c8b" stop-opacity=".64"/>
      <stop offset="1" stop-color="#004eb5" stop-opacity=".6"/>
    </linearGradient>
    <radialGradient id="Unbenannter_Verlauf_17" data-name="Unbenannter Verlauf 17" cx="-2530.42" cy="-2588.86" fx="-2530.42" fy="-2588.86" r="98.74" gradientTransform="translate(1140.39 -11336.01) rotate(-4.61) scale(.69 -4.38)" gradientUnits="userSpaceOnUse">
      <stop offset="0" stop-color="#2295ff" stop-opacity=".65"/>
      <stop offset="1" stop-color="#2295ff" stop-opacity="0"/>
    </radialGradient>
    <radialGradient id="Unbenannter_Verlauf_7" data-name="Unbenannter Verlauf 7" cx="-170.55" cy="-2547.94" fx="-170.55" fy="-2547.94" r="98.74" gradientTransform="translate(6193.92 -14162.4) rotate(16.19) scale(9.86 -6.01)" gradientUnits="userSpaceOnUse">
      <stop offset="0" stop-color="#b34d4d" stop-opacity="0"/>
      <stop offset="1" stop-color="red"/>
    </radialGradient>
    <clipPath id="clippath-3">
      <rect class="cls-1" x="517.06" y="78.42" width="197.49" height="197.49" transform="translate(55.09 487.33) rotate(-45)"/>
    </clipPath>
    <linearGradient id="Unbenannter_Verlauf_29-2" data-name="Unbenannter Verlauf 29" x1="279.32" x2="558.91" xlink:href="#Unbenannter_Verlauf_29"/>
    <clipPath id="clippath-4">
      <rect class="cls-1" x="547.88" y="78.41" width="197.51" height="197.51" transform="translate(64.12 509.13) rotate(-45)"/>
    </clipPath>
    <radialGradient id="Unbenannter_Verlauf_22-2" data-name="Unbenannter Verlauf 22" cx="4091.17" fx="4091.17" xlink:href="#Unbenannter_Verlauf_22"/>
  </defs>
  <rect id="white_background_1" data-name="white background 1" class="cls-7" x="47.6" y="78.42" width="197.49" height="197.49" transform="translate(-82.41 155.37) rotate(-45)"/>
  <rect id="white_background_2" data-name="white background 2" class="cls-7" x="78.41" y="78.41" width="197.51" height="197.51" transform="translate(-73.38 177.17) rotate(-45)"/>
  <rect id="white_background_3" data-name="white background 3" class="cls-7" x="109.24" y="78.42" width="197.49" height="197.49" transform="translate(-64.36 198.96) rotate(-45)"/>
  <g class="cls-12">
    <g class="cls-2">
      <rect id="rect35896-3-4-6-6-2" class="cls-6" x="7.04" y="-7.87" width="279.59" height="355.63"/>
      <rect id="rect35917-90-7-5-4-2" class="cls-18" x="7.04" y="15.36" width="279.59" height="332.41"/>
      <rect id="rect35924-9-9-9-42-2" class="cls-20" x="-132.84" y="37.81" width="279.59" height="279.59"/>
      <polygon id="polygon35937-3-9-0-7-2" class="cls-22" points="175.4 385.96 95.58 87.1 373.05 12.94 452.93 311.75 175.4 385.96"/>
      <polygon id="polygon35948-65-4-8-5-2" class="cls-21" points="-12.46 190.14 331.91 134.55 356.32 285.52 11.94 341.1 -12.46 190.14"/>
      <polygon id="polygon35957-1-3-2-4-2" class="cls-19" points="-25.38 -11.88 315.4 27.01 296.95 305.44 -43.82 266.47 -25.38 -11.88"/>
      <rect id="rect35968-1-9-3-10-2" class="cls-16" x="-31.97" y="156.25" width="367.25" height="189.22"/>
    </g>
  </g>
  <g class="cls-13">
    <g class="cls-8">
      <rect id="rect35803-7-5-9-32-2" class="cls-6" x="37.86" y="-7.89" width="279.62" height="355.67"/>
      <rect id="rect35824-0-2-8-75-2" class="cls-5" x="37.86" y="15.33" width="279.62" height="332.44"/>
      <rect id="rect35826-6-7-8-5-2" class="cls-6" x="-48.34" y="-7.66" width="365.51" height="365.51"/>
      <rect id="rect35843-7-8-8-7-2" class="cls-17" x="-15.32" y="-34.78" width="460.61" height="358.44"/>
      <path id="path35860-8-7-6-4-2" class="cls-23" d="M568.68,421H-214.05V-284.98H568.68V421Z"/>
      <polygon id="polygon35877-4-4-8-9-2" class="cls-26" points="346.01 -71.15 406.2 277.38 44.81 339.82 -15.38 -8.78 346.01 -71.15"/>
      <polygon id="polygon35886-19-00-4-03-3" class="cls-24" points="32.73 -19.86 373.54 9.79 347.48 323.66 8.38 221.91 32.73 -19.86"/>
      <polygon id="polygon35886-19-00-4-03-4" class="cls-28" points="-68.14 256.57 -4.59 -12.49 208.97 30.3 145.36 299.31 -68.14 256.57"/>
    </g>
  </g>
  <g class="cls-11">
    <rect id="rect62862-8" class="cls-27" x="109.24" y="78.42" width="197.49" height="197.49" transform="translate(-64.36 198.96) rotate(-45)"/>
    <rect id="rect62862" class="cls-15" x="109.24" y="78.42" width="197.49" height="197.49" transform="translate(-64.36 198.96) rotate(-45)"/>
    <rect id="rect62862-7-2" data-name="rect62862-7" class="cls-25" x="109.24" y="78.42" width="197.49" height="197.49" transform="translate(-64.36 198.96) rotate(-45)"/>
  </g>
  <g class="cls-12">
    <g class="cls-10">
      <rect id="rect35924-9-9-9-42-2-2" data-name="rect35924-9-9-9-42-2" class="cls-3" x="336.63" y="37.81" width="279.59" height="279.59"/>
    </g>
  </g>
  <g class="cls-13">
    <g class="cls-9">
      <path id="path35860-8-7-6-4-2-2" data-name="path35860-8-7-6-4-2" class="cls-4" d="M1038.14,421H255.41V-284.98h782.73V421Z"/>
    </g>
  </g>
  <g>
    <path class="cls-7" d="M159.85,224.69c-2.95,0-5.72-.7-8.11-1.84-7.97-3.81-14.25-14.09-10.83-26.39,5.48-19.76,10.19-38.35,14.54-55.7,1.64-6.55,7.5-11.13,14.26-11.13h75.71c6.72,0,12.62,4.54,14.35,11.05,2.37,8.86,6.92,25.64,15.3,55.78,3.42,12.3-2.87,22.59-10.83,26.39-7.28,3.48-18.11,2.88-26.73-9.19-.94-1.33-.64-3.16,.68-4.11,1.33-.94,3.16-.64,4.11,.68,5.53,7.75,12.79,10.48,19.41,7.31,5.58-2.66,10.37-9.9,7.71-19.51-8.38-30.17-12.94-46.97-15.32-55.84-1.04-3.93-4.61-6.68-8.67-6.68h-75.71c-4.05,0-7.57,2.74-8.55,6.68-4.36,17.39-9.08,36.02-14.58,55.84-2.67,9.61,2.12,16.85,7.7,19.51,6.61,3.16,13.88,.43,19.41-7.31,.95-1.31,2.77-1.62,4.11-.68,1.32,.95,1.62,2.78,.68,4.11-5.79,8.11-12.58,11.04-18.62,11.04Z"/>
    <g class="cls-14">
      <path class="cls-7" d="M219.32,159.03h-23.52c-8.11,0-14.7-6.59-14.7-14.7v-11.76c0-1.62,1.31-2.94,2.94-2.94s2.94,1.31,2.94,2.94v11.76c0,4.86,3.96,8.82,8.82,8.82h23.52c4.86,0,8.82-3.96,8.82-8.82v-11.76c0-1.62,1.31-2.94,2.94-2.94s2.94,1.31,2.94,2.94v11.76c0,8.11-6.59,14.7-14.7,14.7Z"/>
    </g>
    <g class="cls-14">
      <path class="cls-7" d="M184.05,206.07c-8.11,0-14.7-6.59-14.7-14.7s6.59-14.7,14.7-14.7,14.7,6.59,14.7,14.7-6.59,14.7-14.7,14.7Zm0-23.52c-4.86,0-8.82,3.96-8.82,8.82s3.96,8.82,8.82,8.82,8.82-3.96,8.82-8.82-3.96-8.82-8.82-8.82Z"/>
    </g>
    <g class="cls-14">
      <path class="cls-7" d="M231.08,206.07c-8.11,0-14.7-6.59-14.7-14.7s6.59-14.7,14.7-14.7,14.7,6.59,14.7,14.7-6.59,14.7-14.7,14.7Zm0-23.52c-4.86,0-8.82,3.96-8.82,8.82s3.96,8.82,8.82,8.82,8.82-3.96,8.82-8.82-3.96-8.82-8.82-8.82Z"/>
    </g>
  </g>
</svg>